<svg width="579" height="415" viewBox="0 0 579 415" fill="none" xmlns="http://www.w3.org/2000/svg">
<g clip-path="url(#clip0)">
<path d="M504.342 291.732L504.798 274.237L487.632 270.889L482.68 274.237L479.004 277.118L470.006 264.521H465.345L461.365 226.336V264.521H455.794L450.572 278.139H443.457V287.355L431.12 288.947L427.487 274.237H401.138V291.732H504.342Z" fill="#A4E2F2"/>
<path d="M556.861 15.2898H345.121V19.4509H556.861V15.2898Z" fill="#624E9B"/>
<path d="M350.222 23.922C353.51 23.922 356.176 20.9887 356.176 17.3703C356.176 13.7519 353.51 10.8186 350.222 10.8186C346.934 10.8186 344.269 13.7519 344.269 17.3703C344.269 20.9887 346.934 23.922 350.222 23.922Z" fill="#624E9B"/>
<path d="M335.991 11.9916C340.215 6.99603 335.553 -2.20912 328.165 0.483409C324.288 2.04649 322.169 6.37521 323.274 11.0292C324.211 15.0408 327.411 18.0945 331.227 18.421C332.01 18.4784 331.631 18.4645 347.953 17.9269C348.241 17.9174 348.242 17.4422 347.953 17.4321C347.9 17.4302 332.094 16.902 332.142 16.9046C331.889 16.8756 331.636 16.8617 331.386 16.8251C327.877 16.2573 325.187 12.949 325.236 8.92908C325.224 8.54776 325.341 7.72273 325.435 7.43596C326.26 4.23795 329.286 2.73601 331.491 3.50242C332.928 3.98269 333.993 5.52812 333.937 7.23931C333.901 8.8629 332.503 9.96966 331.614 9.33623C330.379 8.457 328.732 8.84588 327.933 10.2035C326.661 12.3672 328.373 15.1285 330.641 14.6772C331.129 14.5202 333.987 14.3822 335.991 11.9916Z" fill="#624E9B"/>
<path d="M343.099 19.9551H348.169V15.2898H343.099C341.928 15.2898 340.979 16.2384 340.979 17.4088V17.8355C340.979 19.0059 341.928 19.9551 343.099 19.9551Z" fill="#624E9B"/>
<path d="M551.76 23.922C555.048 23.922 557.714 20.9887 557.714 17.3703C557.714 13.7519 555.048 10.8186 551.76 10.8186C548.472 10.8186 545.807 13.7519 545.807 17.3703C545.807 20.9887 548.472 23.922 551.76 23.922Z" fill="#624E9B"/>
<path d="M565.992 11.9916C561.767 6.99603 566.429 -2.20912 573.817 0.483409C577.693 2.04649 579.813 6.37521 578.708 11.0292C577.771 15.0408 574.57 18.0945 570.756 18.421C569.973 18.4784 570.351 18.4645 554.03 17.9269C553.741 17.9174 553.74 17.4422 554.03 17.4321C554.083 17.4302 569.889 16.902 569.84 16.9046C570.093 16.8756 570.346 16.8617 570.597 16.8251C574.104 16.2573 576.795 12.949 576.746 8.92908C576.758 8.54776 576.64 7.72273 576.547 7.43596C575.722 4.23795 572.697 2.73601 570.491 3.50242C569.055 3.98269 567.989 5.52812 568.045 7.23931C568.082 8.8629 569.478 9.96966 570.369 9.33623C571.603 8.457 573.251 8.84588 574.049 10.2035C575.322 12.3672 573.609 15.1285 571.342 14.6772C570.853 14.5202 567.995 14.3822 565.992 11.9916Z" fill="#624E9B"/>
<path d="M558.884 19.9551H553.813V15.2898H558.884C560.054 15.2898 561.003 16.2384 561.003 17.4088V17.8355C561.003 19.0059 560.054 19.9551 558.884 19.9551Z" fill="#624E9B"/>
<path d="M527.512 38.5702H375.866L375.767 37.1754H527.599L527.512 38.5702Z" fill="#8368CF"/>
<path d="M527.599 37.1754H528.996L528.91 38.5702H527.512L527.599 37.1754Z" fill="#8368CF"/>
<path d="M375.767 37.1754L375.866 38.5702H374.468L374.37 37.1754H375.767Z" fill="#8368CF"/>
<path d="M520.72 48.2689H382.569L399.777 294.26H505.827L520.72 48.2689ZM451.645 208.48H507.231L502.29 290.099H451.645V208.48ZM451.645 140.168H511.367L507.63 201.892H451.644V140.168H451.645ZM446.526 135.66H392.475L386.652 52.4299H446.526V135.66ZM446.526 201.892H397.107L392.79 140.168H446.525V201.892H446.526ZM446.526 290.099H403.278L397.568 208.48H446.525V290.099H446.526ZM451.645 52.4299H516.679L511.64 135.66H451.645V52.4299Z" fill="#8368CF"/>
<path d="M364.776 28.5022V38.5702H369.008V42.7313H374.762L393.072 301.611H512.809L528.656 42.7313H533.837V38.5702H536.369V28.5022H529.526H373.755H364.776ZM376.16 42.7307H527.258L511.499 300.215H394.371L376.16 42.7307ZM370.402 38.5702H374.468H375.866H527.513H528.91H532.443V41.3371H528.741H527.344H376.061H374.664H370.402V38.5702V38.5702ZM366.17 29.8964H373.854H375.252H528.044H529.442H534.975V37.1754H533.837H528.996H374.369H369.008H366.17V29.8964V29.8964Z" fill="#8368CF"/>
<path d="M308.987 415.001C451.03 415.001 566.179 403.828 566.179 390.045C566.179 376.262 451.03 365.089 308.987 365.089C166.944 365.089 51.7956 376.262 51.7956 390.045C51.7956 403.828 166.944 415.001 308.987 415.001Z" fill="#838BC5"/>
<path d="M227.313 173.776C225.606 172.016 224.318 170.568 223.25 169.396C219.235 173.511 214.031 178.209 212.914 176.199C211.664 173.949 214.814 168.581 217.041 165.267C215.558 165.136 213.648 165.366 210.815 165.869C210.393 165.944 209.981 166.007 209.576 166.059C205.846 171.929 198.452 182.884 195.702 182.06C192.751 181.174 198.027 170.044 200.386 165.385C197.226 164.455 195.235 163.119 194.142 163.119C193.132 163.119 176.994 186.049 183.605 168.717C181.357 166.326 176.489 169.707 173.133 171.026C169.904 172.294 169.005 183.407 167.05 189.042C164.794 190.297 165.462 170.682 165.462 170.682C165.462 170.682 144.787 177.558 144.787 181.339C144.787 185.12 158.459 191.651 152.457 191.651C146.455 191.651 139.785 181.682 139.785 181.682C139.785 181.682 129.027 187.526 131.071 194.057C133.116 200.588 126.47 202.943 124.284 205.197C124.28 205.201 124.279 205.207 124.275 205.211C119.208 207.064 112.766 210.794 109.995 213.651C105.326 218.464 118.554 246.767 115.107 250.319C111.662 253.871 104.659 222.818 104.659 219.839C104.659 218.123 103.167 217.98 101.235 219.352C106.835 187.417 115.516 159.819 129.036 145.83C134.255 140.233 140.265 137.035 145.82 133.602C144.821 135.262 143.954 138.217 143.954 143.526C143.954 156.073 175.28 160.219 170.631 155.427C165.982 150.635 160.794 135.792 163.295 135.792C165.796 135.792 169.965 151.433 176.634 154.699C183.304 157.965 191.14 149.198 191.14 149.198C191.14 149.198 170.214 132.956 172.299 130.808C174.383 128.659 192.473 150.402 197.476 152.464C202.478 154.527 211.648 144.558 211.648 144.558C211.648 144.558 177.134 125.479 178.105 122.214C179.075 118.948 210.148 142.495 214.983 140.949C219.818 139.401 223.987 129.433 223.987 129.433C223.987 129.433 188.972 117.23 190.306 114.308C191.64 111.386 219.652 127.199 223.653 126.339C227.655 125.479 225.654 113.62 225.654 111.557C225.654 109.494 204.062 106.487 201.977 104.338C199.893 102.189 223.153 108.291 224.82 108.291C226.488 108.291 228.322 106.229 226.655 102.276C224.987 98.3227 223.487 85.2597 223.487 85.2597C221.486 85.2597 212.649 78.0405 211.148 76.4938C209.648 74.9471 203.978 88.6972 201.811 88.6972C199.644 88.6972 208.147 76.3217 208.147 73.3998C208.147 70.4778 202.812 67.8994 198.476 67.8994C194.142 67.8994 187.471 97.7435 185.471 97.7435C183.471 97.7435 192.474 67.2124 191.14 65.8371C189.806 64.4619 185.971 62.3996 177.968 63.6028C169.965 64.806 174.467 99.6973 171.632 102.619C168.797 105.541 171.632 65.6651 171.632 64.6333C171.632 63.6022 161.628 66.3521 158.126 69.9616C154.624 73.5712 160.627 107.259 158.126 109.837C155.625 112.416 153.624 77.6964 153.624 74.0868C153.624 70.4772 150.456 70.1337 141.452 81.8215C138.968 85.0466 138.527 88.5799 139.153 92.0357C124.974 98.4866 127.801 121.89 133.949 128.229C137.071 131.446 140.829 132.241 143.784 132.244C130.211 140.494 121.905 146.109 112.662 167.927C112.654 160.542 111.865 144.537 107.994 140.547C104.104 136.536 112.663 138.713 112.663 134.588C112.663 130.463 112.218 114.65 110.44 112.817C108.661 110.984 103.993 125.421 101.102 122.442C98.2125 119.463 109.328 110.525 109.328 109.379C109.328 108.233 102.88 86.691 101.324 86.691C99.7677 86.691 100.879 96.0871 96.4334 98.3788C91.9872 100.67 98.8788 85.087 98.8788 80.2742C98.8788 75.4614 94.3216 74.4303 89.0968 69.0446C83.8726 63.6589 77.9814 54.1487 77.9814 54.1487C77.9814 54.1487 82.4277 70.1904 89.3193 83.9411C95.8169 96.9052 97.5707 145.091 97.7504 150.562C97.3696 150.995 97.7207 145.956 96.4524 225.389C96.1397 226.325 96.1466 227.627 96.3906 229.197C96.3477 231.861 96.5248 228.534 94.9577 241C93.451 236.35 92.4568 232.903 92.4568 232.903C92.4568 232.903 91.5988 233.843 90.3803 235.398C89.6969 231.251 88.2312 228.037 85.7619 227.059C85.7619 227.059 84.5559 228.324 82.7807 230.059C82.3955 216.759 81.0093 167.846 76.3657 155.509C77.9757 155.48 80.1078 154.991 82.9402 153.624C92.3188 149.094 81.2205 116.361 79.7459 122.726C78.2714 129.091 69.5277 139.623 68.3942 137.13C67.2607 134.636 77.0623 124.833 76.4811 117.004C75.8998 109.175 65.7957 104.525 65.7957 104.525C65.7957 104.525 63.1385 131.254 60.5879 129.951C58.0379 128.648 66.0907 102.76 65.3657 97.0281C64.6407 91.2958 53.0331 85.75 53.0331 85.75C53.0331 85.75 54.4136 127.052 51.5327 127.264C48.6524 127.475 52.1713 87.9906 48.8238 83.7275C45.4757 79.4643 36.1356 78.9071 36.1356 78.9071C36.1356 78.9071 42.8822 118.227 40.0933 117.951C37.3044 117.676 36.4294 84.0357 33.974 80.3561C31.5179 76.676 23.5603 82.9522 22.0183 83.6966C20.4769 84.4416 28.0141 107.058 27.3522 109.912C26.6902 112.765 20.7108 87.3692 19.955 85.7071C19.1991 84.0445 3.34436 95.3516 3.34436 95.3516C4.25089 97.347 2.85958 108.764 2.38362 110.819C1.90766 112.874 14.7547 113.563 15.7369 115.725C16.7191 117.886 3.61544 113.873 1.43171 114.929C-0.752025 115.984 -0.261568 122.234 1.70341 126.557C3.66776 130.88 28.9975 126.757 29.904 128.752C30.8106 130.747 3.90984 132.79 3.4862 134.617C3.0632 136.443 3.25926 141.012 7.78558 148.558C12.3119 156.104 36.3519 139.02 39.8204 140.792C43.2889 142.564 12.1991 154.132 11.4274 154.503C10.6565 154.876 17.2461 163.859 21.531 166.047C25.8159 168.236 48.276 150.09 51.3366 151.653C54.3973 153.216 29.3518 167.744 26.6543 169.047C23.9562 170.35 25.135 173.633 37.9512 178.392C41.4859 179.705 44.3246 178.87 46.6231 177.001C57.4062 188.328 72.7478 178.435 75.717 170.178C77.2016 182.749 78.1913 200.366 78.8344 220.143C76.0839 215.295 70.4651 209.826 67.7531 212.621C64.0854 216.403 60.2506 232.731 56.0817 228.434C51.9135 224.137 66.4191 212.965 64.7517 206.434C63.0843 199.902 57.4491 194.276 55.3258 196.465C53.2026 198.653 53.7473 220.871 51.0801 218.121C48.4122 215.371 55.039 193.239 53.0803 191.22C51.1223 189.201 41.1864 179.62 37.5181 183.401C33.8498 187.183 41.8534 207.579 39.7416 205.402C37.6291 203.224 32.4049 180.422 29.5145 177.443C26.6247 174.464 22.053 178.202 19.288 175.352C19.288 175.352 18.7326 181.682 17.2871 183.172C15.8422 184.661 31.2928 198.068 29.2919 198.068C27.291 198.068 14.6192 185.922 14.6192 185.922C14.6192 185.922 15.6196 198.87 18.3985 201.735C21.1773 204.599 35.961 207.006 35.961 209.527C35.961 212.048 16.842 206.318 16.842 206.318C16.842 206.318 20.6219 221.215 27.291 223.048C33.9607 224.881 44.4097 223.506 44.4097 226.027C44.4097 228.547 31.2928 226.943 31.2928 226.943C31.2928 226.943 34.4058 245.277 43.0758 245.277C51.7458 245.277 52.7336 243.673 52.7336 246.881C52.7336 250.09 45.9662 244.589 45.9662 250.318C45.9662 256.047 52.2551 267.537 55.5257 264.166C57.2807 262.357 58.4602 259.728 59.1802 257.675C63.7361 275.27 69.3234 300.862 73.0964 331.653H56.8609C26.9134 341.918 28.1465 362.607 59.4292 372.092H119.409C150.684 362.609 151.934 341.921 121.978 331.653H102.101C102.664 320.051 103.795 308.479 105.79 298.883C106.078 301.169 106.779 303.967 108.217 307.382C113.33 319.528 135.117 314.257 135.117 314.257C121.778 314.257 117.999 291.111 122 289.277C126.002 287.444 123.779 308.528 136.895 311.737C150.012 314.945 154.013 304.174 154.013 304.174C143.786 302.112 125.449 284.812 128.898 281.257C132.346 277.702 149.345 301.883 156.236 301.883C163.129 301.883 170.687 283.091 170.687 283.091C162.239 288.133 134.672 274.84 132.104 270.257C129.535 265.674 159.349 282.403 170.242 280.341C181.136 278.278 180.469 258.569 180.469 258.569C177.023 262.121 147.121 258.799 144.009 255.59C140.897 252.381 173.577 257.194 179.802 253.986C186.027 250.777 184.026 234.369 184.026 234.369C184.026 234.369 161.35 239.319 155.57 237.715C149.789 236.111 179.357 233.131 182.025 226.256C184.693 219.381 178.105 203.432 178.105 203.432C175.05 206.582 165.434 203.974 161.436 203.507C172.322 198.131 185.037 191.935 190.496 189.589C199.644 185.658 224.393 184.525 236.084 188.129C238.638 189.146 240.161 189.933 240.161 189.933C240.161 189.933 235.228 181.935 227.313 173.776ZM140.619 99.3526C140.759 98.5433 140.793 97.8223 140.788 97.1409C143.885 104.099 149.619 109.842 148.789 110.696C147.372 112.158 139.785 104.165 140.619 99.3526ZM51.4356 172.893C50.7674 173.045 50.2132 173.272 49.7058 173.523C53.5027 167.923 55.1966 160.133 56.2122 160.651C57.9464 161.537 55.4103 171.987 51.4356 172.893ZM98.4583 151.561C101.024 154.43 99.414 169.056 103.326 173.088C105.591 175.423 108.105 175.896 109.956 174.718C104.136 190.137 100.833 203.851 98.3051 218.365C98.5856 184.965 98.7149 157.613 98.4583 151.561ZM85.9977 262.304C88.0881 265.254 90.3752 267.697 91.9115 269.631C91.7665 271.245 91.626 272.864 91.4879 274.485C89.1283 274.172 86.1049 270.119 83.5265 266.593C83.5151 265.717 83.5038 264.844 83.4918 263.969C84.1235 263.825 84.8188 263.796 85.9977 262.304ZM79.0544 227.365C79.1099 229.367 79.1609 231.391 79.2107 233.425C74.6522 237.548 69.1034 241.853 67.4227 240.12C64.9629 237.586 75.2511 231.824 79.0544 227.365ZM75.7876 331.653C71.881 299.625 66.0119 273.172 61.3399 255.372C64.2612 257.235 71.8368 261.822 77.9688 263.516C77.5811 267.122 77.8616 274.37 79.8739 280.847C79.9754 298.927 79.9319 316.471 79.8392 331.654H75.7876V331.653ZM83.7875 331.653C83.8354 318.673 83.8373 303.962 83.7389 288.644C85.6585 291.093 87.4552 292.203 90.0499 293.12C89.1302 306.377 88.4298 319.454 87.9103 331.653H83.7875V331.653ZM91.4974 331.653C91.8397 319.845 92.3452 307.093 93.1358 293.902C93.8551 294.019 94.5649 294.103 95.2508 294.13C94.9551 309.528 94.6998 321.808 94.4937 331.653H91.4974V331.653ZM99.6636 331.653H97.1174C97.2486 320.555 97.3973 307.714 97.5493 294.061C101.046 293.754 103.892 292.522 105.538 291.621C102.231 303.106 100.472 317.487 99.6636 331.653ZM107.105 265.444C104.767 266.477 101.096 258.31 98.0145 249.9C98.1286 238.371 98.0063 240.587 98.5113 236.905C102.576 248.586 110.298 264.034 107.105 265.444ZM133.339 237.485C127.555 237.485 130.588 218.251 131.207 209.208C132.504 209.642 133.862 210.064 135.182 210.455C135.151 220.18 138.57 237.485 133.339 237.485ZM151.124 222.36C147.595 223.226 152.063 212.338 154.458 206.963C155.923 206.236 157.469 205.468 159.083 204.669C156.78 208.684 155.052 221.396 151.124 222.36Z" fill="url(#paint0_linear)"/>
<path d="M431.915 196.468C431.915 196.468 376.626 196.468 360.265 196.468C349.161 196.468 319.467 274.576 301.531 324.77H431.915V196.468Z" fill="#70A3FF"/>
<path d="M363.694 338.279H179.834C169.24 338.279 160.652 329.693 160.652 319.101V215.646C160.652 205.055 169.24 196.468 179.834 196.468H363.694C374.288 196.468 382.876 205.055 382.876 215.646V319.101C382.876 329.693 374.288 338.279 363.694 338.279Z" fill="#99BEFF"/>
<path d="M395.216 282.591H173.805V345.879H395.216V282.591Z" fill="#D6E5FF"/>
<path d="M395.216 296.205H173.805V353.12H395.216V296.205Z" fill="#8FB7FF"/>
<path d="M441.736 353.12H395.216V203.86C395.216 198.555 399.517 194.254 404.824 194.254H432.128C437.435 194.254 441.736 198.555 441.736 203.86V353.12Z" fill="#8FB7FF"/>
<path d="M185.999 353.12H124.85V206.691C124.85 200.636 129.759 195.728 135.815 195.728H175.035C181.09 195.728 185.999 200.636 185.999 206.691V353.12V353.12Z" fill="#BFD7FF"/>
<path d="M137.592 353.12H130.608V376.33H137.592V353.12Z" fill="#99BEFF"/>
<path d="M190.389 353.12H182.337V378.863H190.389V353.12Z" fill="#99BEFF"/>
<path d="M435.229 353.12H426.201V374.131H435.229V353.12Z" fill="#99BEFF"/>
<path d="M404.993 353.12H395.216V374.131H404.993V353.12Z" fill="#99BEFF"/>
<path d="M246.584 250.641C246.584 250.641 248.281 245.399 248.01 239.415C247.74 233.43 254.83 230.593 258.32 230.523C261.811 230.452 258.135 234.918 255.554 238.158C252.973 241.398 261.647 252.27 259.507 256.68C257.368 261.089 247.292 252.815 246.584 250.641Z" fill="#882400"/>
<path d="M278.352 259.889C278.352 259.889 283.41 254.02 283.83 251.215C284.25 248.41 275.054 250.015 277.455 245.068C279.855 240.12 290.17 245.029 291.926 247.902C293.683 250.776 289.739 261.134 289.739 261.134L278.352 259.889Z" fill="#FFBF4B"/>
<path d="M291.926 247.902C293.683 250.776 289.739 261.133 289.739 261.133L284.294 260.538C286.115 258.332 288.931 254.38 288.469 251.506C287.945 248.245 282.651 245.187 280.803 242.983C284.8 242.621 290.644 245.804 291.926 247.902Z" fill="#882400"/>
<path d="M229.65 268.596C229.65 268.596 226.034 257.44 227.028 253.55C228.022 249.66 229.485 239.086 228.501 237.528C227.517 235.969 229.94 225.063 231.647 223.774C233.353 222.487 234.39 228.395 234.332 231.517C234.275 234.64 233.563 238.337 234.286 238.688C235.01 239.039 244.628 245.866 247.437 249.767C247.437 249.767 286.511 266.934 298.93 258.008C298.93 258.008 299.784 250.425 305.76 250.127C311.735 249.829 316.811 252.684 317.965 262.223C319.12 271.762 309.44 287.219 276.56 290.829C243.678 294.44 229.65 268.596 229.65 268.596Z" fill="#FFEE99"/>
<path d="M229.65 268.596C229.65 268.596 226.034 257.44 227.028 253.55C228.022 249.66 229.485 239.086 228.501 237.528C227.517 235.969 229.94 225.063 231.647 223.774C233.353 222.487 234.39 228.395 234.332 231.517C234.275 234.64 233.563 238.337 234.286 238.688C235.01 239.039 244.628 245.866 247.437 249.767C247.437 249.767 286.511 266.934 298.93 258.008C298.93 258.008 299.784 250.425 305.76 250.127C311.735 249.829 316.811 252.684 317.965 262.223C319.12 271.762 309.44 287.219 276.56 290.829C243.678 294.44 229.65 268.596 229.65 268.596Z" fill="#FFEE99"/>
<path d="M247.437 249.767C259.312 255.816 288.701 266.417 298.93 258.008C288.451 264.347 260.465 254.351 247.437 249.767Z" fill="#FFF8D3"/>
<path d="M294.518 284.042C294.518 284.042 304.708 278.547 305.821 273.539C306.934 268.532 293.513 261.787 292.556 265.602C291.599 269.416 298.335 272.833 298.335 272.833C298.335 272.833 287.344 277.602 288.756 281.671C290.167 285.74 294.518 284.042 294.518 284.042Z" fill="#FFF8D2"/>
<path d="M304.059 251.295C304.059 251.295 305.592 246.585 309.235 244.309C309.235 244.309 312.851 252.362 311.277 253.668C309.703 254.972 304.059 251.295 304.059 251.295Z" fill="#F13F00"/>
<path d="M311.369 253.577C311.039 250.766 308.974 246.167 308.974 246.167C306.693 247.593 305.239 249.972 304.47 251.552C304.21 251.392 304.059 251.294 304.059 251.294C304.059 251.294 305.592 246.584 309.235 244.308C309.235 244.308 312.702 252.03 311.369 253.577Z" fill="#B53000"/>
<path d="M314.781 256.537C314.781 256.537 319.34 254.598 323.449 255.85C323.449 255.85 319.751 263.867 317.733 263.537C315.715 263.208 314.781 256.537 314.781 256.537Z" fill="#F13F00"/>
<path d="M318.107 263.511C319.974 261.356 321.989 256.988 321.989 256.988C319.37 256.191 316.568 256.689 314.88 257.155C314.813 256.772 314.781 256.537 314.781 256.537C314.781 256.537 319.34 254.598 323.449 255.85C323.45 255.85 320.176 262.947 318.107 263.511Z" fill="#B53000"/>
<path d="M232.559 262.931C214.19 245.794 219.818 225.914 238.628 224.261C243.795 223.811 246.484 225.121 246.443 225.113C247.451 225.527 248.602 225.047 249.017 224.04C249.419 223.062 248.974 221.945 248.026 221.503C245.203 220.189 241.565 219.838 238.433 219.978C221.164 220.779 212.436 234.86 216.985 250.02C220.602 262.159 231.481 270.906 229.799 269.406C231.179 270.636 233.297 270.516 234.528 269.136C235.76 267.756 235.639 265.64 234.259 264.409C233.952 264.133 233.84 264.136 232.559 262.931Z" fill="#B53000"/>
<path d="M300.145 254.097C301.407 251.713 302.835 250.299 305.635 250.159C311.61 249.86 319.033 252.258 320.188 261.797C320.49 264.285 318.91 268.2 316.239 270.993C312.929 266.951 310.764 262.975 311.74 256.947C311.74 256.948 304.344 259.354 300.145 254.097Z" fill="#B53000"/>
<path d="M276.56 290.83C243.679 294.441 229.65 268.597 229.65 268.597C229.65 268.597 226.034 257.44 227.028 253.55C227.459 251.864 227.979 248.92 228.348 246C231.363 250.768 235.352 258.562 237.147 257.94C239.691 257.058 241.273 247.924 245.703 254.973C250.132 262.022 253.297 270.825 258.204 273.205C263.111 275.585 267.35 268.61 271.347 270.549C275.344 272.487 277.837 281.594 280 280.844C282.164 280.094 277.95 272.058 283.328 271.333C288.706 270.609 288.155 275.738 292.576 281.044C294.204 282.997 298.485 283.837 302.091 283.966C295.836 287.126 287.477 289.63 276.56 290.83Z" fill="#B53000"/>
<path opacity="0.28" d="M288.873 282.01C291.655 284.682 301.89 278.64 303.003 273.632C304.117 268.625 290.695 261.88 289.738 265.694C288.781 269.509 295.518 272.926 295.518 272.926C295.518 272.926 283.365 276.718 288.873 282.01Z" fill="#B53000"/>
<path d="M309.022 259.997C309.01 260.006 307.853 260.99 307.55 261.614C307.357 262.013 308.014 263.441 308.543 264.326C308.593 264.411 308.565 264.522 308.48 264.572C308.396 264.626 308.285 264.596 308.234 264.51C308.038 264.182 307.185 262.704 307.162 261.835C305.881 261.993 304.469 260.69 304.406 260.632C304.232 260.469 304.478 260.208 304.651 260.369C304.666 260.383 306.094 261.699 307.226 261.46C307.254 261.429 307.515 260.81 308.79 259.721C308.868 259.657 308.98 259.668 309.043 259.743C309.108 259.819 309.098 259.933 309.022 259.997Z" fill="black"/>
<path d="M310.233 263.684C310.218 263.69 310.205 263.698 310.194 263.711C310.162 263.749 310.166 263.805 310.204 263.838L316.222 269C316.26 269.033 316.317 269.029 316.349 268.99C316.381 268.952 316.377 268.896 316.34 268.864L310.321 263.702C310.295 263.679 310.262 263.674 310.233 263.684Z" fill="#B9BCFC"/>
<path d="M311.214 263.344C311.191 263.352 311.172 263.369 311.161 263.392C311.141 263.437 311.161 263.49 311.207 263.511L319.364 267.172C319.408 267.193 319.461 267.172 319.482 267.128C319.502 267.082 319.482 267.029 319.437 267.009L311.281 263.347C311.259 263.337 311.235 263.337 311.214 263.344Z" fill="#B9BCFC"/>
<path d="M311.792 262.084C311.764 262.093 311.742 262.116 311.735 262.147C311.723 262.195 311.752 262.243 311.8 262.255L318.488 263.925C318.536 263.938 318.585 263.908 318.597 263.86C318.609 263.811 318.579 263.763 318.532 263.751L311.843 262.081C311.825 262.076 311.808 262.078 311.792 262.084Z" fill="#B9BCFC"/>
<path d="M296.341 249.49C296.33 249.494 296.32 249.5 296.311 249.507C296.274 249.54 296.269 249.597 296.303 249.634L304.404 258.887C304.436 258.925 304.493 258.928 304.53 258.895C304.567 258.862 304.571 258.806 304.539 258.768L296.438 249.515C296.412 249.488 296.374 249.479 296.341 249.49Z" fill="#B9BCFC"/>
<path d="M298.802 246.453C298.796 246.455 298.79 246.457 298.785 246.46C298.743 246.486 298.729 246.54 298.754 246.583L304.94 257.044C304.965 257.086 305.019 257.099 305.063 257.075C305.106 257.05 305.12 256.995 305.094 256.953L298.908 246.492C298.886 246.454 298.841 246.439 298.802 246.453Z" fill="#B9BCFC"/>
<path d="M301.71 245.872C301.709 245.872 301.708 245.873 301.706 245.874C301.661 245.892 301.638 245.944 301.656 245.991L305.088 254.535C305.106 254.581 305.155 254.602 305.204 254.586C305.25 254.568 305.273 254.515 305.254 254.469L301.823 245.924C301.805 245.879 301.755 245.856 301.71 245.872Z" fill="#B9BCFC"/>
<path d="M314.868 247.722C314.844 247.73 314.825 247.747 314.814 247.772L312.552 253.163C312.532 253.208 312.554 253.26 312.599 253.281C312.645 253.299 312.697 253.278 312.717 253.232L314.979 247.841C314.998 247.796 314.977 247.743 314.931 247.723C314.911 247.715 314.888 247.714 314.868 247.722Z" fill="#B9BCFC"/>
<path d="M313.471 243.694C313.444 243.704 313.421 243.727 313.413 243.757L310.931 253.735C310.919 253.783 310.948 253.831 310.996 253.843C311.045 253.857 311.093 253.827 311.105 253.778L313.588 243.801C313.6 243.752 313.57 243.704 313.522 243.692C313.505 243.688 313.486 243.689 313.471 243.694Z" fill="#B9BCFC"/>
<path d="M321.481 255.431C321.471 255.454 321.452 255.472 321.427 255.481L315.898 257.381C315.851 257.397 315.8 257.372 315.784 257.326C315.768 257.279 315.792 257.228 315.839 257.212L321.368 255.311C321.415 255.296 321.466 255.32 321.482 255.367C321.49 255.388 321.489 255.411 321.481 255.431Z" fill="#B9BCFC"/>
<path d="M325.539 256.472C325.528 256.499 325.503 256.52 325.472 256.525L315.35 258.34C315.301 258.349 315.255 258.316 315.246 258.269C315.236 258.219 315.269 258.173 315.318 258.164L325.44 256.349C325.489 256.34 325.535 256.373 325.545 256.421C325.549 256.44 325.546 256.457 325.539 256.472Z" fill="#B9BCFC"/>
<path d="M308.496 260.103L308.383 258.628C308.383 258.628 309.795 260.255 310.352 260.457L308.768 260.37C308.623 260.362 308.507 260.248 308.496 260.103Z" fill="#ED0009"/>
<path d="M257.439 247.151C257.833 248.07 258.229 248.997 258.582 249.904C255.234 250.43 252.24 249.44 252.051 249.375C251.3 249.119 250.899 248.303 251.155 247.553C251.303 247.117 251.641 246.799 252.044 246.659C252.336 246.558 252.662 246.55 252.977 246.657C253.01 246.668 255.067 247.35 257.439 247.151Z" fill="#CF6F00"/>
<path d="M219.295 253.352C219.288 252.718 219.693 252.175 220.261 251.978C220.403 251.929 220.555 251.901 220.714 251.9C221.507 251.89 222.158 252.525 222.168 253.318C222.183 254.6 221.347 256.072 220.218 257.471C219.703 256.563 219.209 255.616 218.752 254.636C219.1 254.109 219.299 253.664 219.295 253.352Z" fill="#F78500"/>
<path d="M219.384 245.065C219.643 245.814 219.246 246.632 218.497 246.892C217.733 247.156 217.013 247.353 216.348 247.498C216.151 246.541 216.007 245.592 215.915 244.652C216.425 244.534 216.974 244.38 217.557 244.178C218.306 243.919 219.123 244.316 219.384 245.065Z" fill="#F78500"/>
<path d="M219.567 237.817C219.613 238.608 219.009 239.288 218.217 239.333C217.356 239.383 216.612 239.311 215.973 239.161C216.093 238.195 216.272 237.25 216.507 236.327C216.912 236.44 217.419 236.504 218.05 236.467C218.842 236.421 219.521 237.025 219.567 237.817Z" fill="#F78500"/>
<path d="M223.298 230.341C222.823 230.976 221.923 231.106 221.288 230.63L219.664 229.416C220.213 228.634 220.817 227.888 221.475 227.185L223.009 228.331C223.643 228.806 223.773 229.706 223.298 230.341Z" fill="#F78500"/>
<path d="M229.189 225.331C228.439 225.591 227.622 225.194 227.362 224.445L226.872 223.03C227.702 222.578 228.574 222.171 229.488 221.811L230.075 223.504C230.335 224.253 229.939 225.071 229.189 225.331Z" fill="#F78500"/>
<path d="M237.497 223.081C236.721 223.243 235.96 222.745 235.799 221.969L235.442 220.259C236.372 220.125 237.331 220.032 238.319 219.983L238.61 221.383C238.772 222.159 238.276 222.918 237.497 223.081Z" fill="#F78500"/>
<path d="M244.096 223.142C243.328 222.946 242.863 222.166 243.058 221.397L243.362 220.197C244.323 220.334 245.269 220.532 246.171 220.803L245.841 222.103C245.646 222.872 244.865 223.338 244.096 223.142Z" fill="#F78500"/>
<path d="M294.518 284.042C294.518 284.042 304.708 278.547 305.821 273.539C306.934 268.532 293.513 261.787 292.556 265.602C291.599 269.416 298.335 272.833 298.335 272.833C298.335 272.833 287.344 277.602 288.756 281.671C290.167 285.74 294.518 284.042 294.518 284.042Z" fill="#FFF8D2"/>
<path d="M305.821 273.539C304.708 278.547 294.518 284.042 294.518 284.042C294.518 284.042 292.991 284.638 291.453 284.278C292.832 282.671 294.674 280.687 296.727 278.908C301.11 275.11 303.974 274.606 302.142 271.514C300.967 269.532 299.439 267.309 299.034 265.783C302.699 267.549 306.429 270.803 305.821 273.539Z" fill="#B53000"/>
<path d="M272.417 275.274C272.684 275.181 272.981 275.166 273.274 275.248C274.037 275.462 274.483 276.255 274.269 277.018C273.2 280.826 274.542 286.684 275.873 290.9C273.785 291.105 271.775 291.191 269.841 291.173C269.812 286.144 270.49 279.856 271.504 276.243C271.636 275.772 271.987 275.423 272.417 275.274Z" fill="#F78500"/>
<path d="M258.147 276.241C258.324 276.013 258.556 275.852 258.811 275.764C259.254 275.611 259.763 275.676 260.162 275.986C260.789 276.471 260.904 277.372 260.418 277.999C258.383 280.626 259.069 285.916 259.987 290.111C257.519 289.588 255.213 288.892 253.066 288.072C253.951 284.062 255.909 279.131 258.147 276.241Z" fill="#F78500"/>
<path d="M246.255 269.689C246.728 269.525 247.275 269.614 247.678 269.97C248.271 270.495 248.327 271.402 247.802 271.996C245.954 274.087 245.278 279.465 244.937 284.007C242.766 282.641 240.84 281.183 239.149 279.727C241.193 276.111 243.867 272.112 245.65 270.094C245.82 269.903 246.029 269.767 246.255 269.689Z" fill="#F78500"/>
<path d="M240.934 261.189C241.659 260.937 242.459 261.302 242.741 262.022C243.03 262.761 242.665 263.593 241.926 263.882C237.344 265.675 235.381 271.187 234.273 274.901C232.025 272.344 230.624 270.214 230.011 269.212C232.427 266.419 236.42 262.953 240.881 261.208C240.899 261.201 240.916 261.195 240.934 261.189Z" fill="#F78500"/>
<path d="M314.761 261.714C315.545 261.714 316.181 261.078 316.181 260.294C316.181 259.509 315.545 258.874 314.761 258.874C313.976 258.874 313.34 259.509 313.34 260.294C313.34 261.078 313.976 261.714 314.761 261.714Z" fill="#2846A6"/>
<path d="M308.732 256.405C309.517 256.405 310.153 255.769 310.153 254.985C310.153 254.201 309.517 253.565 308.732 253.565C307.948 253.565 307.312 254.201 307.312 254.985C307.312 255.769 307.948 256.405 308.732 256.405Z" fill="#2846A6"/>
<path d="M318.75 251.629L308.766 282.678L334.641 292.05L350.043 289.281L365.079 293.062L391.32 285.045L375.739 260.72L318.75 251.629Z" fill="#451A4F"/>
<path d="M350.043 289.281C350.043 289.281 351.281 264.418 329.405 260.226C322.513 258.906 316.198 259.571 316.198 259.571L308.766 282.678L334.641 292.05L350.043 289.281Z" fill="#552E5D"/>
<path d="M350.043 289.281C350.043 289.281 352.845 259.404 377.516 263.787C387.335 265.531 391.32 285.045 391.32 285.045L365.079 293.062L350.043 289.281Z" fill="#552E5D"/>
<path d="M342.71 184.487C342.71 184.487 340.659 209.92 323.79 226.784C305.239 245.332 288.691 247.8 288.691 247.8C288.691 247.8 281.613 252.355 278.075 253.46C274.536 254.564 271.705 253.874 273.403 252.217C275.102 250.561 276.376 251.665 277.933 250.146C279.49 248.628 278.852 248.835 277.792 247.8C276.73 246.764 271.563 248.904 271.563 249.87C271.563 250.836 270.431 258.429 269.157 257.186C267.883 255.944 269.511 248.559 270.148 247.938C270.785 247.317 274.394 245.867 274.394 245.867L269.44 247.662C269.44 247.662 268.591 255.392 267.67 255.392C266.75 255.392 267.528 247.868 268.166 246.557C268.803 245.246 273.899 244.211 273.899 244.211C273.899 244.211 279.773 243.59 285.01 240.622C288.816 238.465 305.856 228.706 313.927 217.511C316.962 213.3 319.538 205.088 320.544 202.522C324.225 193.135 330.303 174.678 335.541 171.641C337.263 170.642 338.928 169.547 340.312 169.181C343.136 168.434 344.966 169.181 344.966 169.181L342.71 184.487Z" fill="#E26666"/>
<path d="M312.152 211.962L333.063 215.011L341.947 200.191L344.966 169.18C344.966 169.18 343.207 168.84 340.138 169.208C337.816 169.486 334.623 171.106 331.555 174.234C324.435 181.496 312.152 211.962 312.152 211.962Z" fill="#4247A2"/>
<path d="M318.534 267.538C322.44 267.34 328.44 269.772 332.257 275.193C335.551 279.87 341.108 368.23 341.108 368.23L339.787 368.54L339.892 370.952L341.947 379.728L338.717 387.729L332.29 381.018L334.019 370.952L308.766 282.678C308.766 282.678 312.052 267.868 318.534 267.538Z" fill="#61306D"/>
<path d="M383.97 269.169C379.767 268.509 372.645 271.04 368.434 276.23C364.745 280.776 351.015 368.315 351.015 368.315L354.001 368.944C353.817 370.493 353.717 371.349 353.717 371.349L351.015 379.989L353.645 388.159L360.571 383.53L359.577 371.686C359.577 371.686 359.818 371.167 360.256 370.206L361.397 370.392C367 358.049 389.318 305.221 391.32 285.046C391.753 280.678 388.995 269.958 383.97 269.169Z" fill="#61306D"/>
<path d="M369.878 169.208C369.878 169.208 350.281 166.581 340.139 169.208C340.139 169.208 336.57 203.174 333.753 212.932C330.935 222.69 312.152 259.283 312.152 259.283L377.517 263.787C377.517 263.787 378.08 235.264 380.522 224.004C382.964 212.745 387.472 175.777 387.472 172.962L369.878 169.208Z" fill="#757AD8"/>
<path d="M381.273 220.116C382.338 214.125 383.614 205.2 384.729 196.709C369.047 191.279 348.717 190.53 337.587 190.59C336.415 199.412 335.009 208.58 333.752 212.932C333.588 213.501 333.37 214.16 333.105 214.898C355.213 211.756 372.09 216.418 381.273 220.116Z" fill="#FFF7CF"/>
<path d="M384.328 197.591C384.328 197.591 399.568 203.711 397.32 218.333C394.155 238.931 394.365 254.205 389.654 259.16C384.943 264.114 351.74 257.029 344.987 253.528C344.987 253.528 337.413 255.084 334.041 256.612C332.813 257.167 331.378 256.684 330.78 255.514C330.509 254.981 330.311 254.374 330.294 253.724C330.294 253.724 328.837 252.117 329.407 250.369C329.407 250.369 328.363 248.417 328.558 247.35C328.752 246.283 331.595 245.408 336.645 245.214C338.103 245.158 344.32 247.587 346.276 248.601C348.233 249.616 372.281 247.734 377.77 244.496C382.487 241.714 383.621 197.805 384.328 197.591Z" fill="#FF8F8F"/>
<path d="M382.783 217.257C382.647 218.991 382.5 220.755 382.34 222.509L396.036 227.712C396.401 224.732 396.819 221.6 397.321 218.334C397.67 216.061 397.597 213.994 397.224 212.122L396.422 209.819L384.693 206.055C384.482 209.779 383.536 213.461 382.783 217.257Z" fill="#FD5E5A"/>
<path d="M399.478 226.256L381.078 221.192L383.461 203.289C383.461 203.289 387.405 172.945 387.47 172.962C387.869 173.069 389.447 173.542 391.681 174.893C393.647 176.083 395.851 178.881 397.335 183.047C400.778 192.716 399.478 226.256 399.478 226.256Z" fill="#4247A2"/>
<path d="M375.524 137.238C375.524 137.238 377.859 133.254 380.059 133.692C382.259 134.129 381.896 140.525 379.222 141.332C376.548 142.139 374.207 140.3 375.524 137.238Z" fill="#FD5E5A"/>
<path d="M357.283 143.646C357.283 143.646 357.47 166.001 359.484 170.209C361.498 174.418 370.062 176.293 373.409 173.987L373.996 154.948L357.283 143.646Z" fill="#FC7575"/>
<path d="M373.823 160.547L373.995 154.948L357.283 143.646C357.283 143.646 357.321 148.149 357.544 153.494C359.598 156.276 361.935 158.566 364.027 160.004C367.526 162.411 371.141 162.389 373.823 160.547Z" fill="#FD5E5A"/>
<path d="M372.159 120.102C372.159 120.102 377.211 121.067 378.558 124.961C379.904 128.857 380.696 148.021 378.759 152.477C376.823 156.933 371.565 158.243 366.282 154.814C360.998 151.384 353.952 143.216 353.435 135.615C352.917 128.012 362.808 116.041 372.159 120.102Z" fill="#FC7575"/>
<path d="M365.741 116.535C362.355 117.543 354.435 113.326 351.064 121.084C347.694 128.841 352.627 129.778 351.409 132.583C350.19 135.388 350.649 136.58 352.323 141.421C353.997 146.263 355.443 148.202 356.091 149.088C356.929 150.231 357.435 150.53 357.435 150.53L357.285 143.847C357.285 143.847 354.646 140.87 355.398 139.139C356.15 137.409 358.973 139.557 359.956 138.494C361.52 136.798 357.798 126.142 365.85 123.678C372.891 121.524 378.141 124.334 379.353 129.531C381.478 129.084 379.711 112.378 365.741 116.535Z" fill="#111F59"/>
<path d="M359.35 139.886C359.35 139.886 357.369 135.952 355.192 136.566C353.014 137.181 352.895 143.75 355.443 144.383C357.99 145.017 360.409 142.947 359.35 139.886Z" fill="#FC7575"/>
<path d="M358.471 139.605C358.471 139.605 355.231 136.924 354.393 138.852C353.555 140.781 355.02 143.175 357.312 142.271C359.604 141.367 358.471 139.605 358.471 139.605Z" fill="#FD5E5A"/>
<path d="M366.88 148.219C369.476 148.889 372.376 148.988 374.927 148.228C375.801 147.993 376.621 147.604 377.461 147.207C376.745 147.785 375.959 148.326 375.07 148.644C373.3 149.477 369.723 149.705 366.88 148.219Z" fill="#172866"/>
<path d="M362.003 138.232C362.033 138.121 362.772 135.492 365.013 134.275C367.307 133.03 369.486 134.62 369.578 134.688C369.875 134.91 369.542 135.363 369.241 135.141C369.161 135.082 367.255 133.7 365.282 134.771C363.255 135.871 362.553 138.356 362.546 138.381C362.505 138.531 362.35 138.62 362.2 138.578C362.047 138.536 361.962 138.38 362.003 138.232Z" fill="#172866"/>
<path d="M373.753 134.445C375.036 132.473 378.998 133.888 379.498 134.705C379.691 135.024 379.212 135.317 379.016 134.998C379.015 134.998 378.611 134.459 376.775 134.075C374.962 133.696 374.252 134.712 374.223 134.755C374.015 135.063 373.552 134.753 373.753 134.445Z" fill="#172866"/>
<path d="M365.073 139.134C365.643 138.747 366.41 138.391 367.286 138.14C367.753 138.005 368.21 137.912 368.639 137.859C368.365 137.097 367.393 136.709 366.419 136.989C365.412 137.278 364.786 138.172 365.02 138.985C365.034 139.037 365.052 139.086 365.073 139.134Z" fill="#1B2B80"/>
<path d="M374.74 137.53C375.415 137.391 376.26 137.357 377.166 137.461C377.649 137.516 378.107 137.605 378.524 137.721C378.563 136.912 377.813 136.181 376.807 136.066C375.766 135.947 374.845 136.532 374.748 137.373C374.742 137.426 374.74 137.478 374.74 137.53Z" fill="#1B2B80"/>
<path d="M373.866 142.989C373.26 142.204 372.287 141.432 372.255 141.401C372.209 141.461 371.491 142.257 371.066 143.019C371.489 142.7 371.931 142.253 372.29 141.859C372.76 142.26 373.325 142.695 373.866 142.989Z" fill="#18287D"/>
<path d="M361.781 126.749C361.781 126.749 364.586 121.722 364.702 119.202C364.818 116.683 362.462 114.854 360.872 115.481C359.282 116.108 359.402 117.358 359.402 117.358C359.402 117.358 359.075 114.776 360.533 113.351C361.991 111.926 364.299 112.852 365.469 113.36C366.638 113.868 366.864 114.576 366.864 114.576C366.864 114.576 367.57 112.519 366.277 111.5C364.983 110.481 363.263 111.106 363.263 111.106C363.263 111.106 365.237 109.371 367.803 110.486C370.369 111.6 370.246 113.095 370.526 113.803C370.805 114.511 370.09 115.876 370.09 115.876C370.09 115.876 371.989 115.125 372.546 113.842C373.103 112.559 371.157 109.96 371.157 109.96C371.157 109.96 378.375 110.198 375.672 116.419C375.672 116.419 377.072 116.799 378.062 115.704C379.051 114.608 378.49 112.917 378.49 112.917C378.49 112.917 387.525 126.309 379.353 129.531C379.037 129.655 379.366 125.382 372.935 123.999C366.859 122.692 361.781 126.749 361.781 126.749Z" fill="#1B2B80"/>
<path d="M365.316 143.646C367.151 143.646 368.639 142.9 368.639 141.979C368.639 141.058 367.151 140.311 365.316 140.311C363.48 140.311 361.992 141.058 361.992 141.979C361.992 142.9 363.48 143.646 365.316 143.646Z" fill="#FD5E5A"/>
<path d="M375.201 141.402C375.201 142.323 376.69 143.07 378.525 143.07C379.016 143.07 379.481 143.016 379.9 142.92C379.918 141.929 379.921 140.912 379.911 139.886C379.489 139.789 379.02 139.734 378.525 139.734C376.69 139.734 375.201 140.48 375.201 141.402Z" fill="#FD5E5A"/>
<path d="M53.2877 394.371H59.3944C60.1888 386.109 60.0627 377.869 59.4266 370.164C57.5417 346.405 46.0122 306.732 43.5725 299.933C42.4119 296.699 40.0971 300.268 41.1631 303.668C46.9187 322.03 53.1244 349.205 54.2554 371.394C55.0163 385.007 53.3949 393.619 53.2877 394.371Z" fill="#0B1742"/>
<path d="M158.938 394.371H152.831C152.037 386.109 152.162 377.869 152.799 370.164C154.683 346.405 166.213 306.732 168.653 299.933C169.813 296.699 172.128 300.268 171.062 303.668C165.307 322.03 159.101 349.205 157.97 371.394C157.209 385.007 158.83 393.619 158.938 394.371Z" fill="#2E385D"/>
<path d="M156.378 394.371H150.271C149.476 386.109 149.602 377.869 150.239 370.164C152.124 346.405 163.654 306.732 166.093 299.933C167.254 296.699 169.569 300.268 168.503 303.668C162.747 322.03 156.541 349.205 155.411 371.394C154.648 385.007 156.27 393.619 156.378 394.371Z" fill="#0B1742"/>
<path d="M231.985 394.371H225.878C225.084 386.109 225.21 377.869 225.846 370.164C227.731 346.405 239.26 306.732 241.7 299.933C242.861 296.699 245.175 300.268 244.109 303.668C238.354 322.03 232.149 349.205 231.017 371.394C230.256 385.007 231.878 393.619 231.985 394.371Z" fill="#2E385D"/>
<path d="M251.415 296.738H23.7682V307.35H251.415V296.738Z" fill="#1B2B80"/>
<path d="M251.415 296.738H157.413V307.35H251.415V296.738Z" fill="#662D91"/>
<path d="M251.415 295.348H23.7682V296.738H251.415V295.348Z" fill="#FFFAEF"/>
<path d="M157.675 260.177C157.675 260.177 155.941 284.705 158.341 289.37C160.741 294.036 160.875 296.702 155.408 295.236C149.942 293.769 145.739 266.842 145.739 266.842L157.675 260.177Z" fill="#C7A680"/>
<path d="M157.401 264.865C157.042 272.036 156.627 285.296 158.213 289.091C156.589 288.122 154.453 286.229 154.875 283.105C155.542 278.173 152.83 275.773 152.83 270.841C152.83 267.893 155.363 265.951 157.401 264.865Z" fill="#3D1046"/>
<path d="M101.542 281.572C101.542 270.475 104.142 243.081 132.742 230.184C161.341 217.287 169.841 211.388 181.141 215.787C181.141 215.787 186.841 217.586 188.641 222.185C190.441 226.784 189.841 228.984 189.841 232.983C189.841 236.982 189.937 240.381 189.937 240.381C189.937 240.381 186.841 245.08 181.141 242.88C175.44 240.681 170.541 238.181 169.441 239.281C168.341 240.381 166.191 247.029 167.541 248.379C168.891 249.729 176.505 246.479 178.523 245.979C180.541 245.48 190.341 251.278 188.541 254.677C186.741 258.077 178.341 253.577 176.341 253.577C174.34 253.577 167.321 258.876 162.631 261.076C157.94 263.275 150.291 265.025 148.54 266.775C147.805 267.51 145.463 272.499 142.342 278.215C142.706 283.319 141.674 288.126 141.674 289.369C141.674 289.369 158.141 290.103 161.674 293.636C165.207 297.168 157.407 298.494 149.674 297.265C141.704 295.997 123.756 297.294 122.513 297.257C122.389 297.254 101.542 290.824 101.542 281.572Z" fill="#FFF7CF"/>
<path d="M97.5322 291.83C96.2405 299.045 99.9227 305.44 109.958 309.473C124.606 315.324 155.088 317.374 169.148 310.948C170.547 310.309 171.047 308.864 170.267 307.719C169.495 306.589 167.76 306.175 166.37 306.783C165.976 306.904 163.282 308.404 156.233 309.212C145.045 310.527 133.604 309.732 123.073 307.458C117.069 306.159 109.05 303.946 105.976 299.554C102.968 295.378 104.706 289.605 108.524 285.924C109.848 284.648 109.657 282.735 108.098 281.652C106.524 280.558 104.148 280.724 102.83 282.047C102.83 282.048 98.6096 285.942 97.5322 291.83Z" fill="#552E5D"/>
<path d="M184.441 222.385L193.241 221.186L187.541 227.685L184.441 222.385Z" fill="#3D1046"/>
<path d="M162.49 261.143C162.467 261.153 162.445 261.163 162.422 261.173C162.408 261.18 162.394 261.187 162.38 261.193C162.358 261.203 162.336 261.213 162.315 261.223C162.301 261.229 162.287 261.235 162.273 261.242C162.25 261.252 162.228 261.262 162.206 261.272C162.192 261.277 162.179 261.284 162.165 261.289C162.144 261.299 162.123 261.308 162.101 261.318C162.084 261.325 162.067 261.333 162.049 261.34C162.032 261.349 162.013 261.356 161.995 261.364C161.977 261.372 161.96 261.38 161.943 261.387C161.872 261.418 161.8 261.449 161.728 261.48C161.714 261.486 161.699 261.492 161.684 261.499C161.658 261.509 161.633 261.52 161.607 261.531C161.599 261.535 161.592 261.538 161.583 261.542C161.553 261.555 161.523 261.567 161.493 261.58C161.483 261.584 161.474 261.588 161.466 261.591C161.437 261.603 161.408 261.616 161.379 261.627C161.367 261.632 161.354 261.637 161.342 261.642C161.317 261.652 161.293 261.663 161.268 261.673C161.254 261.678 161.239 261.685 161.225 261.69C161.196 261.702 161.166 261.714 161.137 261.726C161.129 261.729 161.121 261.733 161.113 261.736C161.078 261.75 161.042 261.765 161.007 261.779C161.003 261.78 160.999 261.782 160.995 261.784C160.918 261.815 160.84 261.846 160.762 261.877C160.741 261.885 160.721 261.893 160.7 261.901C160.683 261.908 160.666 261.915 160.649 261.922C160.63 261.929 160.611 261.936 160.593 261.944C160.568 261.954 160.542 261.964 160.517 261.973C160.505 261.978 160.495 261.982 160.483 261.987C160.454 261.998 160.425 262.009 160.396 262.021C160.384 262.026 160.372 262.03 160.359 262.034C160.332 262.045 160.305 262.055 160.278 262.066C160.265 262.072 160.251 262.077 160.237 262.082C160.209 262.092 160.181 262.103 160.152 262.114C160.14 262.119 160.128 262.124 160.115 262.128C159.997 262.172 159.879 262.217 159.76 262.262C159.741 262.269 159.723 262.276 159.704 262.283C159.678 262.293 159.652 262.302 159.625 262.312L159.584 262.327C159.56 262.336 159.537 262.345 159.513 262.353C159.492 262.361 159.472 262.368 159.452 262.375C159.43 262.384 159.409 262.391 159.386 262.399C159.371 262.406 159.355 262.411 159.339 262.417C159.216 262.462 159.093 262.507 158.969 262.551C158.947 262.559 158.926 262.566 158.904 262.575C158.883 262.581 158.864 262.588 158.844 262.596C158.83 262.6 158.817 262.605 158.804 262.61C158.769 262.622 158.734 262.635 158.699 262.648C158.696 262.648 158.694 262.65 158.691 262.65C158.651 262.664 158.612 262.679 158.572 262.693C158.567 262.694 158.563 262.696 158.558 262.698C158.524 262.71 158.49 262.723 158.456 262.734C158.443 262.739 158.429 262.744 158.416 262.749C158.393 262.757 158.37 262.764 158.348 262.772L158.28 262.796C158.271 262.8 158.262 262.803 158.252 262.806C158.216 262.82 158.179 262.832 158.142 262.846C158.107 262.858 158.072 262.87 158.037 262.883L158.03 262.885C157.99 262.899 157.949 262.913 157.908 262.928C157.901 262.93 157.894 262.933 157.886 262.935C157.806 262.963 157.727 262.991 157.646 263.018C157.637 263.021 157.628 263.025 157.619 263.027C157.593 263.037 157.567 263.045 157.541 263.054C157.521 263.061 157.501 263.067 157.481 263.074C157.448 263.086 157.415 263.098 157.382 263.108C157.378 263.11 157.373 263.112 157.369 263.113C157.11 263.202 156.852 263.291 156.594 263.378C156.574 263.385 156.553 263.392 156.532 263.399C156.522 263.403 156.512 263.406 156.502 263.41C156.477 263.418 156.451 263.427 156.425 263.436C156.015 263.575 155.607 263.712 155.204 263.85C155.148 263.869 155.092 263.888 155.035 263.907C154.889 263.957 154.744 264.006 154.599 264.055C154.574 264.064 154.549 264.072 154.524 264.081C154.503 264.088 154.483 264.095 154.463 264.102L154.442 264.109C154.306 264.155 154.172 264.202 154.038 264.248C154.026 264.252 154.014 264.256 154.002 264.261C153.896 264.297 153.791 264.334 153.687 264.37C153.685 264.371 153.683 264.371 153.682 264.372C153.649 264.383 153.617 264.395 153.584 264.406C153.574 264.41 153.564 264.413 153.554 264.417C153.428 264.461 153.303 264.505 153.179 264.549C153.165 264.554 153.151 264.559 153.138 264.564C153.118 264.571 153.098 264.578 153.077 264.585C153.06 264.591 153.043 264.597 153.027 264.603C153.009 264.609 152.99 264.616 152.973 264.622C152.954 264.629 152.936 264.636 152.917 264.642C152.89 264.652 152.864 264.661 152.837 264.671C152.836 264.671 152.835 264.672 152.835 264.672C152.803 264.683 152.774 264.694 152.743 264.705C152.728 264.711 152.713 264.716 152.698 264.721C152.676 264.729 152.654 264.738 152.632 264.746C152.626 264.748 152.62 264.75 152.615 264.752C152.552 264.775 152.49 264.798 152.429 264.82C152.429 264.82 152.427 264.82 152.426 264.821C152.404 264.829 152.382 264.837 152.361 264.845C152.347 264.85 152.334 264.856 152.32 264.861C152.298 264.869 152.276 264.877 152.253 264.886C152.241 264.89 152.229 264.895 152.216 264.9C152.191 264.908 152.166 264.918 152.142 264.927C152.132 264.931 152.123 264.934 152.114 264.938C152.094 264.946 152.075 264.953 152.056 264.96C152.037 264.968 152.018 264.974 151.999 264.982C151.98 264.989 151.96 264.996 151.941 265.004C151.928 265.009 151.916 265.014 151.904 265.018C151.885 265.025 151.865 265.032 151.847 265.04C151.824 265.048 151.802 265.057 151.781 265.065C151.767 265.07 151.755 265.075 151.743 265.081C151.71 265.093 151.678 265.106 151.646 265.118C151.621 265.128 151.596 265.138 151.571 265.148C151.564 265.151 151.558 265.153 151.551 265.156C151.53 265.164 151.51 265.173 151.489 265.181C151.474 265.186 151.46 265.192 151.446 265.198C151.429 265.205 151.412 265.211 151.395 265.218C151.382 265.224 151.367 265.229 151.353 265.236C151.334 265.243 151.316 265.25 151.298 265.257C151.281 265.265 151.264 265.272 151.246 265.278C151.233 265.284 151.219 265.29 151.206 265.295C151.187 265.302 151.169 265.309 151.151 265.317C151.138 265.323 151.123 265.329 151.109 265.335C151.094 265.341 151.076 265.348 151.061 265.355C151.037 265.365 151.015 265.374 150.991 265.384C150.939 265.406 150.887 265.428 150.835 265.45C150.817 265.458 150.798 265.465 150.78 265.473C150.767 265.479 150.754 265.485 150.741 265.49C150.727 265.496 150.713 265.503 150.699 265.508C150.681 265.517 150.664 265.524 150.647 265.532C150.635 265.537 150.624 265.542 150.612 265.547C150.594 265.555 150.577 265.563 150.559 265.571C150.546 265.577 150.532 265.583 150.519 265.589C150.505 265.595 150.491 265.602 150.478 265.607C150.462 265.614 150.446 265.621 150.431 265.629C150.414 265.636 150.397 265.644 150.381 265.652C150.37 265.657 150.36 265.662 150.35 265.666C150.334 265.674 150.317 265.681 150.3 265.689C150.266 265.705 150.231 265.721 150.197 265.737C150.193 265.739 150.19 265.74 150.186 265.742C150.171 265.749 150.156 265.756 150.141 265.764C150.128 265.77 150.116 265.776 150.103 265.781C150.089 265.789 150.075 265.795 150.061 265.802C150.048 265.809 150.035 265.815 150.022 265.82C150.01 265.827 149.998 265.832 149.987 265.838C149.971 265.846 149.955 265.854 149.939 265.861C149.929 265.866 149.918 265.872 149.908 265.877C149.892 265.885 149.876 265.893 149.859 265.901C149.85 265.906 149.841 265.911 149.831 265.915C149.815 265.924 149.799 265.932 149.783 265.94C149.773 265.945 149.763 265.95 149.754 265.955C149.739 265.964 149.724 265.971 149.71 265.979C149.7 265.984 149.69 265.99 149.68 265.994C149.657 266.007 149.634 266.02 149.611 266.032C149.601 266.037 149.591 266.043 149.581 266.048C149.567 266.056 149.553 266.063 149.54 266.071C149.53 266.076 149.521 266.081 149.512 266.086C149.498 266.095 149.483 266.102 149.47 266.11C149.46 266.116 149.451 266.122 149.441 266.127C149.433 266.131 149.426 266.136 149.418 266.14C148.692 266.085 148.16 265.926 147.88 265.646C145.509 263.275 146.177 244.835 141.194 245.906C136.21 246.978 141.141 258.175 136.409 257.509C131.677 256.842 122.077 254.71 120.877 258.842C119.677 262.974 133.097 261.789 137.471 266.163C141.845 270.537 136.077 280.704 131.277 282.037C126.477 283.37 122.326 278.305 120.802 281.371C119.636 283.715 122.167 293.318 127.297 296.723C127.288 296.725 127.337 296.842 127.424 297.034C124.765 297.158 122.889 297.267 122.516 297.256C122.39 297.252 101.544 290.822 101.544 281.57C101.544 270.473 104.144 243.079 132.744 230.182C161.343 217.285 169.843 211.386 181.143 215.785C181.143 215.785 186.843 217.584 188.643 222.183C188.698 222.324 188.751 222.461 188.801 222.598C188.801 222.599 188.802 222.6 188.803 222.601C188.827 222.667 188.85 222.732 188.874 222.796C188.875 222.8 188.876 222.804 188.878 222.808C188.901 222.872 188.924 222.935 188.946 222.998C188.947 223.002 188.948 223.005 188.949 223.009C188.971 223.07 188.992 223.131 189.012 223.191C189.014 223.198 189.017 223.204 189.019 223.21C189.039 223.269 189.059 223.327 189.078 223.385C189.08 223.392 189.082 223.398 189.084 223.404C189.104 223.462 189.122 223.52 189.14 223.576C189.143 223.583 189.145 223.59 189.147 223.597C189.166 223.653 189.183 223.71 189.2 223.767C189.202 223.773 189.204 223.779 189.206 223.785C189.224 223.842 189.241 223.898 189.258 223.955C189.26 223.96 189.261 223.966 189.263 223.972C189.279 224.028 189.296 224.083 189.311 224.138C189.313 224.144 189.314 224.15 189.316 224.156C189.332 224.21 189.347 224.265 189.362 224.318C189.364 224.325 189.366 224.332 189.367 224.339C189.382 224.392 189.396 224.444 189.41 224.497C189.412 224.504 189.414 224.512 189.416 224.519C189.429 224.572 189.442 224.623 189.456 224.675C189.457 224.682 189.459 224.689 189.461 224.696C189.473 224.747 189.486 224.797 189.498 224.847C189.5 224.856 189.502 224.864 189.504 224.873C189.517 224.923 189.528 224.974 189.539 225.023C189.541 225.03 189.543 225.036 189.544 225.042C189.556 225.094 189.567 225.145 189.579 225.196C189.58 225.201 189.581 225.207 189.582 225.212C189.594 225.263 189.604 225.313 189.615 225.363C189.616 225.369 189.617 225.376 189.618 225.381C189.629 225.431 189.638 225.481 189.649 225.53C189.649 225.535 189.65 225.541 189.652 225.547C189.662 225.598 189.671 225.648 189.68 225.698C189.681 225.702 189.681 225.705 189.682 225.709C189.691 225.76 189.7 225.81 189.709 225.86C189.71 225.864 189.71 225.869 189.712 225.874C189.72 225.924 189.729 225.974 189.737 226.024C189.737 226.027 189.738 226.03 189.738 226.033C189.746 226.084 189.754 226.135 189.762 226.185C189.762 226.187 189.763 226.189 189.763 226.192C189.771 226.243 189.778 226.294 189.785 226.345C189.785 226.346 189.786 226.348 189.786 226.35C189.793 226.401 189.8 226.452 189.807 226.502C189.807 226.503 189.807 226.505 189.807 226.506C189.814 226.557 189.82 226.607 189.826 226.658C189.826 226.66 189.826 226.662 189.826 226.663C189.832 226.713 189.838 226.762 189.843 226.812C189.843 226.815 189.843 226.818 189.843 226.822C189.849 226.871 189.854 226.919 189.858 226.968C189.883 227.223 189.901 227.473 189.914 227.722C189.914 227.724 189.914 227.725 189.914 227.726C189.71 228.045 188.098 229.973 179.276 229.116C169.676 228.183 168.876 224.317 165.409 226.583C161.942 228.849 155.645 241.103 159.922 245.379C164.198 249.655 167.276 247.112 166.475 251.644C165.675 256.176 171.676 250.711 173.942 250.711C175.401 250.711 177.112 251.788 177.024 253.676C177.018 253.675 177.011 253.673 177.006 253.672C176.998 253.67 176.99 253.668 176.982 253.667C176.962 253.662 176.943 253.658 176.923 253.654C176.922 253.654 176.921 253.653 176.92 253.653C176.9 253.649 176.882 253.645 176.863 253.641C176.858 253.64 176.851 253.639 176.845 253.637C176.83 253.634 176.815 253.631 176.801 253.628C176.796 253.627 176.79 253.627 176.786 253.625C176.767 253.622 176.747 253.618 176.729 253.615C176.726 253.615 176.723 253.615 176.721 253.614C176.704 253.611 176.688 253.609 176.672 253.606C176.668 253.606 176.664 253.605 176.66 253.605C176.643 253.602 176.624 253.599 176.608 253.597C176.606 253.597 176.604 253.596 176.601 253.596C176.586 253.594 176.571 253.593 176.556 253.591C176.551 253.591 176.546 253.59 176.541 253.589C176.527 253.588 176.514 253.586 176.501 253.585C176.498 253.585 176.495 253.585 176.493 253.584C176.477 253.583 176.461 253.582 176.446 253.581C176.442 253.581 176.438 253.581 176.434 253.58C176.422 253.579 176.41 253.579 176.399 253.578C176.395 253.578 176.391 253.578 176.387 253.578C176.373 253.578 176.358 253.577 176.344 253.577C174.344 253.577 167.324 258.876 162.634 261.076C162.599 261.092 162.564 261.108 162.53 261.124C162.515 261.131 162.503 261.137 162.49 261.143Z" fill="#552E5D"/>
<path d="M180.641 216.786C180.641 216.786 187.242 213 192.342 214.343L186.187 221.431L180.641 216.786Z" fill="#552E5D"/>
<path d="M182.449 218.344C183.234 217.524 187.71 213.123 192.341 214.343L186.186 221.431L182.449 218.344Z" fill="#FC7575"/>
<path d="M129.302 240.901C129.302 240.901 133.884 244.802 129.982 247.016C126.081 249.23 119.649 253.869 119.649 249.125C119.649 244.38 125.669 238.371 129.302 240.901Z" fill="#FB8603"/>
<path d="M112.388 268.054C112.388 268.054 123.55 263.04 128.19 265.886C132.829 268.733 127.715 267.415 123.128 272C118.541 276.586 113.482 280.176 111.213 277.907C108.944 275.64 112.388 268.054 112.388 268.054Z" fill="#FB8603"/>
<path d="M151.071 224.629C151.071 224.629 154.973 232.362 151.071 234.576C147.17 236.789 146.327 231.835 140.633 234.576C136.385 236.621 130.202 235.615 129.39 231.822C130.466 231.253 131.582 230.706 132.742 230.184C139.413 227.175 144.991 224.548 149.765 222.342C150.488 222.942 150.955 223.705 151.071 224.629Z" fill="#FB8603"/>
<path d="M176.589 219.255C172.863 219.676 175.675 216.092 169.771 218.411C166.515 219.689 163.217 218.854 161.16 217.351C169.38 214.125 174.715 213.387 180.808 215.659C180.16 217.09 178.879 218.996 176.589 219.255Z" fill="#FB8603"/>
<path d="M142.343 278.215C142.337 275.984 141.953 273.546 141.083 270.993C138.647 263.995 132.816 261.528 125.278 260.499C121.196 259.938 116.641 260.748 113.644 263.611C117.102 261.518 121.068 261.259 125.05 261.959C135.742 263.962 138.75 267.505 140.982 273.6C141.543 275.09 141.968 276.637 142.343 278.215Z" fill="#E8E0FF"/>
<path d="M178.524 245.98C174.984 246.443 167.675 248.078 166.915 248.284C163.577 249.285 159.158 251.841 156.414 253.903C159.392 252.72 162.694 251.191 164.551 250.463C168.169 249.01 172.513 248.484 178.524 245.98Z" fill="#E8E0FF"/>
<path d="M187.044 233.838C187.961 232.188 185.837 229.974 182.916 230.159C184.532 231.05 186.898 231.654 187.044 233.838Z" fill="#552E5D"/>
<path d="M188.692 241.723C188.523 240.876 188.135 239.241 188.135 239.241C188.346 239.241 189.937 240.382 189.937 240.382C189.937 240.382 189.514 241.024 188.692 241.723Z" fill="#552E5D"/>
<path d="M473.347 338.19C473.347 338.19 469.547 334.841 467.508 335.838L469.467 340.93L473.347 338.19Z" fill="#D86B00"/>
<path d="M535.673 368.559C535.673 368.559 534.351 375.34 539.086 380.074C543.821 384.808 546.423 387.922 546.423 388.944C546.423 389.969 542.84 397.645 542.84 397.645C542.84 397.645 538.915 398.071 538.574 400.119C538.232 402.166 538.489 401.784 538.489 401.784H546.934C546.934 401.784 554.697 388.945 555.38 387.495C556.063 386.045 553.929 372.568 553.929 372.568L535.673 368.559Z" fill="#D86B00"/>
<path d="M494.292 364.568C494.292 364.568 496.083 373.521 494.804 378.383C493.524 383.245 490.282 392.116 490.282 392.116C490.282 392.116 485.675 393.741 486.955 398.899C486.955 398.899 493.701 399.86 494.633 398.927C495.566 397.995 502.397 386.742 503.592 380.089C504.787 373.436 505.725 368.318 505.725 368.318L494.292 364.568Z" fill="#D86B00"/>
<path d="M475.739 336.661C475.739 336.661 468.572 339.163 467.434 343.371C466.297 347.579 463.453 350.65 463.453 350.65C463.453 350.65 463.681 355.54 466.184 356.905C466.184 356.905 466.562 358.118 468.079 358.383C469.596 358.648 474.829 357.89 477.066 357.89C479.304 357.89 487.077 361.113 488.063 363.729C489.049 366.344 504.748 372.827 507.705 374.306C510.662 375.784 518.512 394.209 517.26 397.28C517.26 397.28 514.113 399.062 514.833 402.132L523.13 401.98C523.13 401.98 524.654 400.957 524.654 399.099C524.654 397.242 522.076 373.092 522.076 373.092C522.076 373.092 527.949 369.078 539.125 370.698C550.301 372.319 558.321 385.454 570.009 387.501C570.009 387.501 570.307 394.965 568.131 397.14C565.956 399.315 565.185 402.132 565.185 402.132H574.019C574.019 402.132 578.626 386.137 578.199 383.322C578.199 383.322 570.52 370.271 571.8 366.348C573.08 362.424 575.981 342.124 566.51 338.797C557.041 335.471 535.883 329.585 517.626 337.176C517.626 337.176 508.327 335.3 497.833 338.029C487.341 340.761 475.739 336.661 475.739 336.661Z" fill="#FF8139"/>
<path d="M562.86 354.828C559.546 354.828 555.155 340.563 553.321 338.731C552.377 337.785 549.337 336.387 547.302 334.332C552.495 335.001 557.244 336.119 561.148 337.245C562.95 344.9 564.896 354.828 562.86 354.828Z" fill="#FF4A00"/>
<path d="M549.37 358.517C549.972 363.838 547.261 359.035 543.446 353.054C540.337 348.18 535.627 339.745 532.849 333.91C535.965 333.656 539.052 333.655 542.046 333.833C543.115 336.574 544.585 340.481 546.056 344.815C548.868 353.097 548.768 353.197 549.37 358.517Z" fill="#FF4A00"/>
<path d="M531.034 348.713C528.447 353.217 523.249 342.939 520.025 336.582C522.513 335.698 525.043 335.049 527.579 334.592C529.72 337.981 533.323 344.725 531.034 348.713Z" fill="#FF4A00"/>
<path d="M517.829 351.946C515.415 351.946 510.987 342.605 508.472 336.811C510.434 336.75 512.186 336.808 513.627 336.908C516.197 342.382 520.327 351.946 517.829 351.946Z" fill="#FF4A00"/>
<path d="M506.598 350.597C504.839 350.597 497.88 343.45 496.228 338.677C496.845 338.562 497.459 338.427 498.071 338.267C499.255 337.959 500.424 337.71 501.567 337.51C504.147 342.159 508.562 350.597 506.598 350.597Z" fill="#FF4A00"/>
<path d="M491.537 346.828C488.282 347.222 485.229 342.091 484.194 338.773C486.793 339.135 489.798 339.338 492.886 339.107C493.58 340.956 495.278 346.376 491.537 346.828Z" fill="#FF4A00"/>
<path d="M517.589 336.829C532.761 330.543 551.233 333.138 566.511 338.799C554.84 334.963 541.837 332.66 529.716 334.313C523.031 335.217 518.605 337.213 517.662 337.528C498.249 334.815 493.933 343.001 475.739 336.661C495.846 342.761 499.186 333.63 517.589 336.829Z" fill="#FDB866"/>
<path d="M471.417 331.581C471.417 331.581 473.006 336.844 473.348 338.966C473.689 341.09 481.603 338.354 481.603 338.354C481.603 338.354 475.891 329.458 471.417 331.581Z" fill="#F78500"/>
<path d="M471.433 331.635C471.601 332.195 473.026 336.969 473.347 338.966C473.546 340.203 476.591 339.77 479.096 339.194C477.846 337.302 474.566 332.728 471.433 331.635Z" fill="#FC7575"/>
<path d="M566.467 295.759C564.99 298.029 564.813 300.6 565.038 303.247C565.761 311.737 573.254 335.231 571.047 344.912L570.962 345.284C570.077 349.188 564.169 347.854 565.055 343.945C567.827 331.72 559.146 305.719 561.553 296.162C562.893 291.077 569.954 287.929 574.529 286.681C575.031 286.545 575.549 286.427 576.067 286.478C576.869 286.558 577.604 287.23 577.492 288.082C577.354 289.138 576.096 289.388 575.245 289.674C571.726 290.857 568.411 292.772 566.467 295.759Z" fill="#F78500"/>
<path d="M475.853 349.775C475.858 349.782 475.862 349.789 475.864 349.798C475.872 349.834 475.85 349.87 475.814 349.878L466.856 351.944C466.82 351.952 466.784 351.93 466.776 351.894C466.767 351.857 466.79 351.822 466.826 351.814L475.783 349.748C475.811 349.741 475.838 349.753 475.853 349.775Z" fill="#B9BCFC"/>
<path d="M475.69 346.857C475.693 346.861 475.695 346.865 475.697 346.869C475.712 346.903 475.696 346.942 475.662 346.958L467.337 350.592C467.303 350.607 467.264 350.591 467.248 350.558C467.233 350.524 467.249 350.484 467.283 350.469L475.608 346.835C475.638 346.821 475.673 346.832 475.69 346.857Z" fill="#B9BCFC"/>
<path d="M474.796 353.527C474.796 353.528 474.796 353.529 474.796 353.53C474.791 353.567 474.757 353.592 474.721 353.587L467.901 352.655C467.864 352.65 467.84 352.617 467.843 352.579C467.849 352.542 467.883 352.517 467.919 352.522L474.738 353.454C474.774 353.459 474.799 353.492 474.796 353.527Z" fill="#B9BCFC"/>
<path d="M469.247 347.525C469.746 347.525 470.151 346.919 470.151 346.17C470.151 345.422 469.746 344.815 469.247 344.815C468.747 344.815 468.343 345.422 468.343 346.17C468.343 346.919 468.747 347.525 469.247 347.525Z" fill="#3B0046"/>
<path d="M463.453 350.65L465.005 350.598C465.005 350.598 464.225 352.221 463.649 352.221C463.072 352.221 463.132 350.65 463.453 350.65Z" fill="#FC7575"/>
<path d="M137.592 218.253C137.462 218.253 137.331 218.203 137.231 218.104C137.032 217.905 137.032 217.582 137.231 217.382C149.956 204.661 171.075 202.452 171.287 202.431C171.569 202.407 171.817 202.608 171.844 202.889C171.871 203.169 171.667 203.419 171.386 203.446C171.178 203.467 150.414 205.644 137.953 218.104C137.853 218.203 137.723 218.253 137.592 218.253Z" fill="#552E5D"/>
<path d="M387.471 142.032C387.392 142.032 387.313 142.014 387.238 141.975C386.987 141.847 386.888 141.539 387.018 141.289C400.548 115.01 378.259 99.2776 378.033 99.1219C377.801 98.9624 377.741 98.6448 377.901 98.4128C378.061 98.1796 378.378 98.1229 378.61 98.2817C378.845 98.4425 401.863 114.687 387.924 141.757C387.833 141.931 387.655 142.032 387.471 142.032Z" fill="#552E5D"/>
</g>
<defs>
<linearGradient id="paint0_linear" x1="5.06249e-05" y1="213.121" x2="240.161" y2="213.121" gradientUnits="userSpaceOnUse">
<stop stop-color="#82ACF5"/>
<stop offset="1" stop-color="#F8BDEC"/>
</linearGradient>
<clipPath id="clip0">
<rect width="579" height="415" fill="white"/>
</clipPath>
</defs>
</svg>
