<svg width="75" height="65" viewBox="0 0 75 65" fill="none" xmlns="http://www.w3.org/2000/svg">
<g clip-path="url(#clip0)">
<path d="M37.9765 65C37.7376 65 37.4987 64.9129 37.3116 64.7375C36.9237 64.3737 36.9072 63.7677 37.2746 63.384L59.0506 40.6186L34.2914 61.4085C33.8959 61.7409 33.3061 61.7047 32.9548 61.327C32.6034 60.9492 32.6155 60.3643 32.9821 60.0012L54.0297 39.1565L31.1512 58.8151C30.7581 59.1535 30.1647 59.1221 29.8101 58.7447C29.4552 58.3673 29.4656 57.7792 29.8342 57.415L53.6226 33.8555L27.8295 55.9771C27.4356 56.3151 26.8433 56.2833 26.4884 55.9055C26.1339 55.5282 26.1447 54.9405 26.5129 54.5758L50.1595 31.1572L24.741 53.2175C24.3488 53.5575 23.7545 53.5292 23.398 53.1515C23.0414 52.7745 23.0511 52.1852 23.4201 51.8198L50.2435 25.2546L21.2511 49.966C20.858 50.3008 20.2678 50.2694 19.9141 49.894C19.5599 49.519 19.5671 48.9341 19.9309 48.5683L49.6255 18.6947L17.1697 45.9061C16.7738 46.2377 16.1844 46.2011 15.8335 45.8233C15.4826 45.4456 15.4946 44.8611 15.8612 44.498L44.1156 16.516L13.4818 41.9058C13.0839 42.2362 12.4945 42.1957 12.1456 41.8151C11.7967 41.4346 11.8132 40.8497 12.1829 40.489L39.1328 14.2077L9.94853 37.6431C9.54742 37.9652 8.96162 37.9186 8.61792 37.5365C8.27423 37.1552 8.2935 36.5734 8.66249 36.2151L27.1168 18.2962L6.81754 33.2678C6.4076 33.5704 5.83063 33.5044 5.50139 33.1179C5.17175 32.7314 5.20266 32.1568 5.57245 31.8077L23.6337 14.7262L4.27557 28.6421C3.8576 28.9423 3.27581 28.8651 2.95259 28.4655C2.62977 28.0667 2.68077 27.4869 3.06782 27.1485L21.0945 11.4095L2.92167 23.1029C2.49206 23.3801 1.9183 23.2759 1.61515 22.8663C1.31201 22.4568 1.38428 21.8838 1.77977 21.5609L17.5046 8.72304L2.88514 17.231C2.45271 17.4827 1.89782 17.365 1.60753 16.9606C1.31643 16.5562 1.38629 15.9987 1.76773 15.6766L12.3516 6.74L5.89206 10.3669C5.42751 10.6277 4.83729 10.4663 4.5739 10.0058C4.3105 9.54576 4.47352 8.96122 4.93807 8.70037L20.214 0.124446C20.6484 -0.11891 21.1973 0.003961 21.4828 0.407964C21.7686 0.812365 21.6976 1.36588 21.3181 1.68598L11.4257 10.0392L27.0461 0.947961C27.4805 0.694664 28.0395 0.815149 28.3285 1.22472C28.6176 1.63429 28.5405 2.19496 28.1515 2.51268L16.1692 12.295L31.0998 2.68844C31.5246 2.41446 32.0899 2.51308 32.3967 2.91231C32.703 3.31194 32.646 3.87818 32.2662 4.20981L19.6603 15.2157L34.1183 4.82218C34.5299 4.52594 35.1032 4.59711 35.4289 4.98402C35.7549 5.37092 35.722 5.94194 35.3542 6.28987L18.3365 22.384L37.3991 8.3242C37.807 8.02319 38.3804 8.08681 38.7112 8.46934C39.0421 8.85187 39.0168 9.42328 38.6534 9.77599L24.6607 23.363L53.4885 0.213915C53.89 -0.107776 54.4746 -0.0616498 54.8187 0.319688C55.1624 0.700628 55.1439 1.28158 54.7765 1.64025L30.575 25.2414L59.6095 1.1766C60.0066 0.847358 60.5948 0.886327 60.9433 1.26409C61.2927 1.64224 61.2798 2.22558 60.9136 2.58783L33.7148 29.5248L64.6296 3.6054C65.0243 3.27456 65.6117 3.30955 65.9634 3.68532C66.3148 4.0607 66.3063 4.64364 65.9438 5.00827L37.7223 33.3998L68.5793 7.09907C68.9736 6.76346 69.5654 6.79647 69.9187 7.17383C70.2725 7.55119 70.2616 8.1385 69.8934 8.50235L45.5566 32.6046L70.9751 10.5442C71.3674 10.2039 71.9616 10.2325 72.3182 10.6102C72.6747 10.9872 72.6651 11.5765 72.2957 11.9419L46.9466 37.0466L72.7398 14.9254C73.1336 14.5874 73.7263 14.6197 74.0808 14.997C74.4354 15.3744 74.4245 15.9621 74.0567 16.3263L50.5197 39.6365L73.3986 19.9775C73.7917 19.6395 74.3848 19.6705 74.7397 20.0479C75.0946 20.4252 75.0842 21.0133 74.7156 21.378L50.9879 44.8778L71.2967 27.8249C71.6886 27.4957 72.2716 27.5279 72.6245 27.8973C72.9775 28.2667 72.9771 28.8449 72.6241 29.2143L38.6791 64.7014C38.4884 64.8994 38.233 65 37.9765 65Z" fill="#ED1944"/>
</g>
<defs>
<clipPath id="clip0">
<rect width="75" height="65" fill="white"/>
</clipPath>
</defs>
</svg>
