<svg width="575" height="336" viewBox="0 0 575 336" fill="none" xmlns="http://www.w3.org/2000/svg">
<g clip-path="url(#clip0)">
<path d="M265.258 317.241C390.833 317.241 492.631 314.455 492.631 311.018C492.631 307.581 390.833 304.794 265.258 304.794C139.683 304.794 37.8847 307.581 37.8847 311.018C37.8847 314.455 139.683 317.241 265.258 317.241Z" fill="#838BC5"/>
<path d="M31.1307 281.494L30.5361 279.878L335.547 160.727L336.387 161.905L31.1307 281.494Z" fill="#400519"/>
<path d="M191.731 302.47L191.156 300.817L336.889 160.734L337.449 161.761L191.731 302.47Z" fill="#400519"/>
<path d="M101.337 266.072L100.693 264.476L335.986 161.342L336.668 162.267L101.337 266.072Z" fill="#400519"/>
<path d="M90.463 278.895C90.463 278.895 83.0667 271.744 80.7035 270.359C78.3398 268.975 72.4354 272.31 73.6265 274.756C74.8167 277.202 79.125 274.434 79.125 274.434L86.7261 284.157L90.463 278.895Z" fill="#552E5D"/>
<path d="M145.085 282.793C145.085 282.793 149.5 283.655 154.767 282.69C160.034 281.725 163.562 282.295 166.833 280.558C170.105 278.82 176.2 276.549 178.726 277.193C178.726 277.193 169.948 279.768 168.316 281.628C166.686 283.487 156.561 283.774 155.093 284.554C153.625 285.334 147.244 286.839 147.244 286.839L145.085 282.793Z" fill="#552E5D"/>
<path d="M87.1205 251.609C87.1205 251.609 83.9892 253.234 83.3297 255.341C82.6698 257.448 84.7865 260.906 88.0586 258.327C91.3312 255.748 87.1205 251.609 87.1205 251.609Z" fill="#552E5D"/>
<path d="M144.594 293.377C144.019 296.89 144.019 296.89 144.019 296.89C144.019 296.89 148.942 297.916 148.532 299.228C148.121 300.54 141.673 309.745 141.673 309.745L135.919 308.705C135.39 308.609 135.185 308.004 135.561 307.632C136.458 306.745 138.12 305.575 140.288 306.128L142.912 300.763C142.912 300.763 137.441 301.149 135.191 299.289C133.496 297.888 131.811 295.313 129.732 293.571C132.552 288.964 145.17 289.863 144.594 293.377Z" fill="#552E5D"/>
<path d="M101.292 251.908C101.292 251.908 97.9726 266.196 102.594 268.859C107.215 271.521 146.808 281.419 149.354 284.343C151.9 287.268 155.705 293.877 155.129 297.389C154.554 300.903 154.554 300.903 154.554 300.903C154.554 300.903 159.477 301.928 159.066 303.241C158.656 304.553 152.207 313.758 152.207 313.758L146.454 312.717C145.925 312.622 145.719 312.017 146.096 311.645C146.994 310.758 148.655 309.588 150.823 310.141L153.446 304.776C153.446 304.776 147.976 305.162 145.726 303.302C143.475 301.443 141.246 297.51 138.086 296.21C134.927 294.91 101.387 295.162 95.9932 293.291C90.5993 291.421 84.5601 284.243 82.9173 281.45C81.2744 278.656 88.8393 255.163 87.0757 253.428C85.3116 251.692 80.2457 251.072 78.1693 249.376C76.6824 248.161 77.4927 245.841 77.4927 245.841C77.4927 245.841 76.6955 243.362 77.5828 242.203C78.4701 241.044 80.6004 242.28 80.6004 242.28C80.6004 242.28 87.789 244.113 89.5501 243.177C91.3116 242.242 93.1703 241.33 96.4776 243.164C99.7854 244.995 102.383 248.428 101.292 251.908Z" fill="#61140D"/>
<path d="M149.354 284.343C151.9 287.268 155.705 293.877 155.129 297.389C154.554 300.903 154.554 300.903 154.554 300.903C154.554 300.903 159.477 301.928 159.066 303.241C158.656 304.553 152.207 313.758 152.207 313.758L146.454 312.717C145.925 312.622 145.719 312.017 146.096 311.645C146.993 310.758 148.655 309.588 150.823 310.141L153.446 304.776C153.446 304.776 147.976 305.162 145.726 303.302C144.031 301.901 142.346 299.325 140.267 297.584C143.086 292.978 147.146 288.955 148.821 283.937C149.053 284.082 149.247 284.221 149.354 284.343Z" fill="#61140D"/>
<path d="M101.178 263.535L85.5038 262.803L85.1386 264.886L101.015 265.275L101.178 263.535Z" fill="#FFDA88"/>
<path d="M97.9539 272.622C98.3981 271.204 99.8322 269.581 101.696 268.089C101.955 268.402 102.252 268.663 102.593 268.859C106.236 270.956 131.6 277.549 143.431 281.68C141.855 284.178 139.548 286.926 136.947 287.115C132.117 287.466 129.885 285.215 125.104 287.755C120.323 290.295 113.894 289.051 110.676 283.582C107.458 278.112 96.635 276.835 97.9539 272.622Z" fill="#42210B"/>
<path d="M77.6321 245.633C76.8589 247.486 78.2372 248.264 80.2629 248.832C81.5893 249.103 83.1753 250.03 84.6537 250.922C84.8745 251.058 85.1044 250.741 84.8826 250.603C80.6658 247.997 76.4817 248.748 77.6321 245.633Z" fill="#552E5D"/>
<path d="M99.8141 247.921C99.8141 247.921 101.788 248.819 103.026 250.224C104.265 251.628 98.1556 258.577 97.7185 258.465C97.2814 258.354 99.8141 247.921 99.8141 247.921Z" fill="#552E5D"/>
<path d="M95.2674 265.457C95.2674 265.457 91.4102 264.375 92.8207 260.876C94.2306 257.378 99.8212 254.842 100.372 253.08C100.924 251.32 99.8146 247.921 99.8146 247.921C99.8146 247.921 102.039 248.487 103.439 250.23C104.839 251.972 104.45 253.134 104.98 254.036C105.511 254.938 106.87 255.705 106.616 258.36C106.361 261.015 98.6828 265.438 95.2674 265.457Z" fill="#42210B"/>
<path d="M100.015 253.121C100.589 251.845 100.059 249.148 99.8141 247.921C100.431 249.379 101.108 251.793 100.592 253.331C99.5022 255.648 94.2533 257.796 92.9781 261.379C92.4152 262.874 93.0168 264.484 95.2673 265.458C93.1733 264.97 91.7683 263.33 92.3805 261.238C93.4399 257.347 98.9771 254.949 100.015 253.121Z" fill="#FF9739"/>
<path d="M91.3156 245.581C91.1054 246.251 91.3378 246.897 91.8343 247.024C92.3297 247.15 92.9027 246.709 93.1124 246.039C93.3222 245.368 93.0903 244.723 92.5938 244.596C92.0978 244.47 91.5254 244.91 91.3156 245.581Z" fill="black"/>
<path d="M90.9334 279.116C90.9334 279.116 80.1145 279.721 77.4274 280.487C74.7397 281.252 73.8373 287.485 76.6869 288.211C79.5365 288.938 79.9077 284.177 79.9077 284.177L93.0566 285.065L90.9334 279.116Z" fill="#61140D"/>
<path d="M77.5254 242.026C78.4128 240.868 80.7392 242.315 80.9807 242.373C81.1441 242.411 81.8202 244.189 79.6029 245.61C79.0647 245.955 78.4993 245.955 77.8846 245.888C77.8303 245.882 77.5154 245.877 77.4932 245.84C77.0818 245.141 76.8177 242.951 77.5254 242.026Z" fill="#552E5D"/>
<path d="M188.358 318.48C188.358 318.48 179.767 314.267 177.343 313.758C174.919 313.25 171.28 318.302 173.124 320.186C174.968 322.071 177.503 318.072 177.503 318.072L187.176 324.611L188.358 318.48Z" fill="#552E5D"/>
<path d="M234.388 304.077C234.388 304.077 238.303 303.422 242.264 300.786C246.226 298.149 249.312 297.515 251.367 294.817C253.422 292.12 257.596 287.995 259.889 287.76C259.889 287.76 253.632 293.056 252.96 295.324C252.289 297.593 244.116 301.202 243.194 302.412C242.272 303.622 237.593 307.13 237.593 307.13L234.388 304.077Z" fill="#552E5D"/>
<path d="M175.914 294.188C175.914 294.188 173.933 296.734 174.144 298.913C174.355 301.092 177.316 303.611 179.072 300.132C180.829 296.652 175.914 294.188 175.914 294.188Z" fill="#552E5D"/>
<path d="M237.754 314.089C238.535 317.548 238.535 317.548 238.535 317.548C238.535 317.548 242.924 316.878 243.055 318.235C243.186 319.591 241.192 330.287 241.192 330.287L236.119 331.218C235.652 331.303 235.27 330.808 235.444 330.338C235.862 329.216 236.804 327.579 238.772 327.378L239.007 321.518C239.007 321.518 234.674 323.683 232.173 322.695C230.289 321.95 227.995 320.11 225.676 319.175C226.341 313.958 236.974 310.629 237.754 314.089Z" fill="#552E5D"/>
<path d="M187.604 289.789C187.604 289.789 189.976 304.183 194.7 305.135C199.424 306.087 235.307 302.23 238.429 304.111C241.551 305.992 247.013 310.887 247.793 314.347C248.573 317.806 248.573 317.806 248.573 317.806C248.573 317.806 252.962 317.136 253.093 318.492C253.225 319.848 251.231 330.545 251.231 330.545L246.158 331.476C245.691 331.561 245.309 331.066 245.483 330.595C245.901 329.474 246.843 327.837 248.811 327.635L249.046 321.776C249.046 321.776 244.713 323.941 242.212 322.952C239.711 321.964 236.488 319.041 233.443 318.874C230.398 318.706 203.075 330.012 198.001 330.052C192.927 330.092 185.437 325.405 183.1 323.348C180.763 321.291 178.583 296.928 176.524 295.896C174.465 294.863 170.104 295.959 167.803 295.065C166.155 294.425 165.991 291.998 165.991 291.998C165.991 291.998 164.457 289.954 164.77 288.583C165.082 287.211 167.264 287.658 167.264 287.658C167.264 287.658 173.792 286.992 174.898 285.539C176.004 284.087 177.2 282.625 180.555 283.239C183.911 283.853 187.255 286.189 187.604 289.789Z" fill="#870B04"/>
<path d="M191.647 300.648L178.577 305.14L179.02 307.2L192.134 302.32L191.647 300.648Z" fill="#249999"/>
<path d="M166.032 291.759C166.06 293.739 167.463 294.008 169.321 293.868C170.502 293.683 172.127 294.022 173.653 294.363C173.882 294.417 173.957 294.046 173.726 293.992C169.353 292.958 166.2 295.038 166.032 291.759Z" fill="#552E5D"/>
<path d="M184.975 286.566C184.975 286.566 186.908 286.751 188.421 287.648C189.933 288.546 187.413 297.031 187.016 297.071C186.619 297.112 184.975 286.566 184.975 286.566Z" fill="#552E5D"/>
<path d="M187.501 304.388C187.501 304.388 183.964 304.653 183.871 300.933C183.778 297.211 187.445 293.006 187.269 291.184C187.093 289.363 184.975 286.566 184.975 286.566C184.975 286.566 186.995 286.36 188.76 287.519C190.524 288.678 190.619 289.888 191.374 290.552C192.128 291.216 193.512 291.481 194.249 294.037C194.987 296.592 190.286 303.242 187.501 304.388Z" fill="url(#paint0_linear)"/>
<path d="M186.991 291.339C187.005 289.962 185.613 287.627 184.975 286.566C185.999 287.719 187.411 289.743 187.537 291.344C187.471 293.86 183.945 297.592 184.179 301.348C184.251 302.925 185.316 304.225 187.501 304.388C185.616 304.626 183.885 303.563 183.64 301.414C183.121 297.443 186.793 293.383 186.991 291.339Z" fill="#FF9739"/>
<path d="M177.197 287.193C177.264 287.886 177.684 288.411 178.134 288.364C178.585 288.318 178.896 287.719 178.829 287.026C178.762 286.333 178.342 285.809 177.892 285.854C177.441 285.901 177.13 286.5 177.197 287.193Z" fill="black"/>
<path d="M192.687 322.825C192.687 322.825 184.06 326.958 182.136 328.558C180.212 330.158 181.693 336.256 184.281 335.992C186.868 335.728 185.477 331.174 185.477 331.174L196.54 327.661L192.687 322.825Z" fill="#870B04"/>
<path d="M164.661 288.437C164.974 287.066 167.39 287.645 167.609 287.619C167.756 287.602 168.941 289.033 167.635 291.087C167.317 291.586 166.855 291.772 166.329 291.913C166.282 291.926 166.024 292.026 165.992 291.998C165.407 291.482 164.412 289.532 164.661 288.437Z" fill="#552E5D"/>
<path d="M28.3395 300.844C28.3395 300.844 18.083 295.813 15.1881 295.206C12.2932 294.599 7.94919 300.631 10.1509 302.881C12.3521 305.13 15.3792 300.356 15.3792 300.356L26.9285 308.164L28.3395 300.844Z" fill="#552E5D"/>
<path d="M83.2961 283.647C83.2961 283.647 87.9716 282.865 92.7009 279.716C97.4303 276.568 101.116 275.811 103.569 272.591C106.023 269.37 111.006 264.445 113.744 264.165C113.744 264.165 106.272 270.487 105.471 273.196C104.67 275.905 94.9117 280.214 93.8106 281.66C92.71 283.104 87.123 287.292 87.123 287.292L83.2961 283.647Z" fill="#552E5D"/>
<path d="M13.4824 271.84C13.4824 271.84 11.1177 274.88 11.3692 277.481C11.6212 280.082 15.1559 283.091 17.2535 278.936C19.3511 274.781 13.4824 271.84 13.4824 271.84Z" fill="#552E5D"/>
<path d="M87.3162 295.601C88.2478 299.731 88.2478 299.731 88.2478 299.731C88.2478 299.731 93.4882 298.931 93.6446 300.551C93.8011 302.171 91.4208 314.94 91.4208 314.94L85.364 316.052C84.8071 316.153 84.3494 315.563 84.5586 315.001C85.0576 313.661 86.1819 311.706 88.5315 311.466L88.8121 304.47C88.8121 304.47 83.6376 307.055 80.6517 305.875C78.4027 304.986 75.6638 302.788 72.8952 301.672C73.6899 295.444 86.3846 291.47 87.3162 295.601Z" fill="#552E5D"/>
<path d="M27.4391 266.588C27.4391 266.588 30.2716 283.773 35.9124 284.91C41.5527 286.047 84.3947 281.441 88.122 283.687C91.8494 285.933 98.3705 291.777 99.3021 295.908C100.234 300.038 100.234 300.038 100.234 300.038C100.234 300.038 105.475 299.238 105.631 300.858C105.788 302.478 103.408 315.247 103.408 315.247L97.3504 316.359C96.7935 316.461 96.3358 315.87 96.5455 315.308C97.044 313.969 98.1683 312.014 100.518 311.773L100.799 304.777C100.799 304.777 95.6245 307.362 92.6386 306.182C89.6527 305.003 85.8056 301.512 82.1693 301.313C78.534 301.113 45.9119 314.611 39.854 314.66C33.7962 314.708 24.8531 309.111 22.0623 306.655C19.2721 304.199 16.671 275.112 14.2117 273.878C11.7525 272.645 6.54627 273.952 3.7993 272.886C1.8325 272.122 1.63683 269.223 1.63683 269.223C1.63683 269.223 -0.194654 266.784 0.179087 265.147C0.552325 263.509 3.15695 264.043 3.15695 264.043C3.15695 264.043 10.9502 263.247 12.2711 261.513C13.5925 259.779 15.0191 258.034 19.0251 258.767C23.0306 259.499 27.0231 262.29 27.4391 266.588Z" fill="#F15A24"/>
<path d="M32.267 279.553L16.6619 284.916L17.1906 287.375L32.848 281.549L32.267 279.553Z" fill="#FF0000"/>
<path d="M1.68411 268.94C1.71681 271.303 3.39236 271.624 5.61116 271.457C7.02062 271.236 8.96176 271.64 10.7837 272.049C11.0573 272.114 11.1459 271.67 10.8712 271.605C5.64839 270.37 1.88482 272.855 1.68411 268.94Z" fill="#552E5D"/>
<path d="M24.3018 262.739C24.3018 262.739 26.6096 262.96 28.4154 264.032C30.2208 265.104 27.2117 275.234 26.7384 275.282C26.264 275.331 24.3018 262.739 24.3018 262.739Z" fill="#552E5D"/>
<path d="M27.3173 284.018C27.3173 284.018 23.094 284.336 22.9828 279.892C22.8722 275.45 27.2494 270.428 27.0392 268.254C26.8284 266.08 24.3017 262.74 24.3017 262.74C24.3017 262.74 26.7127 262.493 28.8198 263.877C30.9265 265.261 31.0402 266.705 31.9411 267.499C32.842 268.292 34.4944 268.608 35.3742 271.659C36.2544 274.71 30.6413 282.65 27.3173 284.018Z" fill="url(#paint1_linear)"/>
<path d="M26.7077 268.437C26.7248 266.794 25.0623 264.006 24.3017 262.739C25.5236 264.116 27.2097 266.532 27.3601 268.444C27.2806 271.448 23.0719 275.904 23.3505 280.389C23.4361 282.272 24.7077 283.823 27.3173 284.018C25.0663 284.302 22.9989 283.033 22.7072 280.467C22.087 275.727 26.4718 270.879 26.7077 268.437Z" fill="#FF9739"/>
<path d="M15.0146 263.489C15.094 264.316 15.5955 264.942 16.1338 264.887C16.6715 264.832 17.0432 264.117 16.9627 263.289C16.8823 262.461 16.3823 261.835 15.8435 261.89C15.3058 261.945 14.9341 262.661 15.0146 263.489Z" fill="black"/>
<path d="M35.0578 304.793C35.0578 304.793 24.7575 309.73 22.4607 311.639C20.1644 313.549 21.932 320.831 25.0211 320.515C28.1111 320.199 26.4501 314.763 26.4501 314.763L39.6583 310.567L35.0578 304.793Z" fill="#F15A24"/>
<path d="M0.0472888 264.974C0.42103 263.337 3.30583 264.028 3.56639 263.998C3.74245 263.977 5.15744 265.686 3.59758 268.138C3.21881 268.735 2.667 268.957 2.03924 269.124C1.9834 269.139 1.67405 269.258 1.63632 269.224C0.937629 268.609 -0.251 266.28 0.0472888 264.974Z" fill="#552E5D"/>
<path d="M435.14 215.358C496.105 220.718 548.443 190.038 552.039 146.833C552.94 136.019 550.701 125.445 545.882 115.585C561.997 111.884 573.835 101.622 574.92 88.597C576.401 70.799 557.243 54.5809 532.129 52.3736C513.445 50.7312 496.729 57.3058 488.783 68.1088C476.385 63.3815 462.684 60.1752 448.164 58.8989C387.199 53.5392 334.861 84.2187 331.265 127.424C327.668 170.629 374.174 209.998 435.14 215.358Z" fill="#C7DDFF"/>
<path d="M391.589 65.8874C391.589 65.8874 387.741 70.9858 387.527 80.4107C387.404 85.778 392.824 111.809 398.468 136.814C402.734 155.714 409.209 165.249 409.892 165.598C411.48 166.41 418.039 164.337 418.039 164.337L408.035 119.387L396.402 80.9565C395.391 76.4205 395.164 70.5674 396.212 66.1044C396.738 63.8648 397.785 62.8508 398.812 60.7678L391.589 65.8874Z" fill="#241145"/>
<path d="M354.546 142.57C352.015 144.502 352.096 145.723 350.537 146.167C348.255 146.817 344.051 147.218 340.49 150.991C336.929 154.763 336.486 155.624 340.292 159.42C341.887 161.01 342.804 162.211 343.331 163.07C343.945 164.071 345.117 164.557 346.227 164.243C356.211 161.419 347.518 158.736 358.905 151.444C359.497 151.065 360.169 150.644 360.91 150.187C359.234 147.378 357.121 144.799 354.546 142.57Z" fill="#FD5E5A"/>
<path d="M340.309 161.877C342.958 166.37 341.186 172.452 336.352 175.462C331.517 178.472 325.451 177.27 322.802 172.778C320.154 168.285 321.926 162.203 326.76 159.194C331.595 156.183 337.661 157.385 340.309 161.877Z" fill="#400519"/>
<path d="M343.745 148.487L319.347 163.678L320.064 164.893C325.383 173.916 336.812 176.798 345.591 171.332L354.092 166.038C356.869 164.309 357.756 160.594 356.074 157.74L351.82 150.524C350.137 147.67 346.522 146.758 343.745 148.487ZM352.262 157.967C353.434 159.955 352.816 162.544 350.881 163.748L349.041 164.893C347.107 166.099 344.588 165.463 343.415 163.475L340.051 157.769C338.879 155.781 339.497 153.192 341.432 151.988L343.272 150.843C345.207 149.638 347.725 150.273 348.898 152.261L352.262 157.967Z" fill="url(#paint2_linear)"/>
<path d="M508.246 202.806L520.054 193.36L527.811 217.46L518.028 205.532L509.738 208.089L508.246 202.806Z" fill="#241145"/>
<path d="M453.374 154.841L416.719 171.534L372.573 221.678L350.533 294.984L360.941 299.14L391.603 227.281L456.958 162.366L453.374 154.841Z" fill="#241145"/>
<path d="M421.888 165.006L445.346 242.181L517.618 211.747L508.45 199.802L460.526 215.971L456.958 162.366L421.888 165.006Z" fill="#35115E"/>
<path d="M351.661 294.984L350.964 297.134L328.193 299.282L357.702 307.401L360.041 297.803L351.661 294.984Z" fill="#241145"/>
<path d="M371.142 120.548C382.813 99.0395 384.576 72.2657 391.589 65.8874C392.056 65.4624 392.525 65.252 393.045 65.0148C395.716 64.2485 395.96 87.6993 396.007 90.8985C394.312 100.083 395.503 129.008 362.012 153.454C360.593 151.493 353.641 143.396 352.381 141.338C357.474 136.157 364.588 132.627 371.142 120.548Z" fill="#FB8603"/>
<path d="M408.788 134.438C400.022 100.674 386.056 72.3362 392.059 66.1462C392.059 66.1462 401.606 60.3061 405.821 59.0117C412.11 57.0802 422.738 57.7705 432.842 74.973C437.439 82.7998 435.093 102.472 438.527 119.387C441.961 136.302 456.968 148.633 459.876 161.353C441.951 166.186 434.041 168.435 416.647 173.125C414.846 167.305 411.543 145.05 408.788 134.438Z" fill="#FFBA00"/>
<path opacity="0.19" d="M425.211 121.626C439.883 101.765 434.178 81.0728 430.187 74.1643C426.196 67.2564 426.008 66.5877 419.297 73.4846C414.122 78.803 410.377 97.0074 402.162 112.023C404.441 119.063 406.754 126.604 408.788 134.437C409.023 135.341 409.261 136.328 409.502 137.384C415.723 132.245 421.361 126.839 425.211 121.626Z" fill="#FF8139"/>
<path d="M403.257 136.814C397.612 111.809 395.884 84.9019 396.006 79.5346C396.174 72.1886 393.83 66.4463 394.416 63.884L391.589 65.8874C391.589 65.8874 387.742 70.9858 387.527 80.4107C387.404 85.778 392.824 111.809 398.468 136.814C402.734 155.714 409.21 165.249 409.893 165.598C410.662 165.991 412.597 165.708 414.388 165.311C412.917 163.566 407.161 154.114 403.257 136.814Z" fill="url(#paint3_linear)"/>
<path d="M408.423 52.874C408.423 52.874 394.027 58.1633 393.078 60.2135C392.13 62.2647 395.211 70.7864 395.211 70.7864L408.181 63.6775L408.423 52.874Z" fill="#241145"/>
<path d="M394.687 48.5299L396.143 65.5229C396.442 69.0146 398.752 71.5854 401.434 71.447C402.112 71.4117 402.823 71.3443 403.541 71.23C407.13 70.661 410.502 67.3974 409.8 62.7577C408.899 56.8074 406.821 46.9066 406.888 41.6874C406.996 33.1466 394.71 44.1721 394.687 48.5299Z" fill="#FC7575"/>
<path d="M406.888 41.6874C406.997 33.1466 394.71 44.1726 394.687 48.5299L395.538 58.4633C396.772 58.2484 399.411 57.7036 401.818 56.6402C405.097 55.1921 405.329 50.7584 407.267 49.5172C407.364 49.4553 407.466 49.3737 407.57 49.2761C407.152 46.382 406.862 43.6898 406.888 41.6874Z" fill="#FD5E5A"/>
<path d="M379.122 20.3191C382.652 22.7449 389.57 26.2658 392.169 22.761C389.849 26.7754 382.19 24.0797 378.199 22.0551L379.122 20.3191Z" fill="#0F1D5B"/>
<path d="M389.288 31.1573C389.288 31.1573 384.948 27.6565 385.666 30.7077C386.384 33.7593 388.533 40.3184 390.839 37.748C393.144 35.1782 389.288 31.1573 389.288 31.1573Z" fill="#FD5E5A"/>
<path d="M398.262 16.4054C397.67 17.0312 391.206 16.498 389.051 23.6613C386.896 30.8245 389.239 47.2626 393.331 51.6918C397.422 56.1211 402.14 53.378 405.824 45.9721C409.508 38.5652 416.649 29.0587 411.479 21.9599C408.732 18.1873 398.262 16.4054 398.262 16.4054Z" fill="#FC7575"/>
<path d="M390.499 46.026C390.499 46.026 392.389 50.8273 390.493 52.8534C388.599 54.8785 395.928 55.6614 398.391 54.9656C400.854 54.2692 403.998 53.5618 404.992 52.7844C406.641 51.4965 406.753 34.9421 405.34 38.8129C403.927 42.6838 400.599 49.48 399.217 49.4724C397.835 49.4639 396.065 49.8385 394.652 49.8299C393.24 49.8219 390.499 46.026 390.499 46.026Z" fill="#0F1D5B"/>
<path d="M397.236 19.5895C396.629 23.3627 393.102 28.5275 384.785 22.8154C376.468 17.1037 378.152 9.93799 378.152 9.93799C378.152 9.93799 382.353 15.8782 384.946 14.6341C387.539 13.39 385.696 6.32994 385.696 6.32994C385.696 6.32994 395.106 5.62756 396.869 5.63763C398.632 5.64821 400.394 11.5738 400.394 11.5738C400.394 11.5738 399.203 8.92344 408.495 8.09519C417.788 7.26694 412.266 22.1493 413.296 27.3166C414.327 32.484 407.964 41.5781 407.948 44.5991C407.932 47.6201 409.45 49.5172 409.45 49.5172C409.45 49.5172 407.448 50.0092 405.713 44.7124C403.977 39.4151 407.242 31.6351 407.264 27.6071C407.29 22.7122 405.16 20.9434 403.268 19.4213C401.859 18.2874 397.845 15.8163 397.236 19.5895Z" fill="#0F1D5B"/>
<path d="M406.954 32.634C406.954 32.634 403.521 39.3255 405.928 38.8155C408.334 38.3059 413.094 34.8761 412.074 30.0869C411.054 25.2981 406.954 32.634 406.954 32.634Z" fill="#FC7575"/>
<path d="M406.954 32.634C406.954 32.634 409.063 30.5078 409.758 31.2605C411.38 33.0162 405.999 37.9766 406.007 36.6454C406.014 35.3157 406.954 32.634 406.954 32.634Z" fill="#FD5E5A"/>
<path d="M397.247 32.8715C397.948 32.8754 398.52 32.047 398.526 31.0212C398.532 29.9954 397.968 29.1606 397.268 29.1567C396.567 29.1527 395.994 29.9811 395.989 31.0069C395.983 32.0328 396.546 32.8675 397.247 32.8715Z" fill="#18287D"/>
<path d="M389.855 32.8298C390.556 32.8337 391.128 32.0053 391.134 30.9795C391.14 29.9537 390.576 29.119 389.876 29.115C389.175 29.1111 388.602 29.9395 388.597 30.9653C388.591 31.9911 389.154 32.8259 389.855 32.8298Z" fill="#18287D"/>
<path d="M397.285 24.6179L396.892 25.8016C396.892 25.8016 398.772 25.1405 400.045 26.8071C400.044 26.8066 398.826 24.3495 397.285 24.6179Z" fill="#18287D"/>
<path d="M388.611 27.1772C388.611 27.1772 389.975 26.2366 390.907 26.2422L390.413 25.3409C390.413 25.3404 388.616 26.15 388.611 27.1772Z" fill="#18287D"/>
<path d="M389.306 27.6087L385.339 27.5865C384.062 27.5789 383.021 28.7712 383.013 30.2485L382.995 33.4386C382.987 34.9164 384.016 36.1202 385.293 36.1273L389.26 36.1494C390.536 36.157 391.578 34.9647 391.586 33.4875L391.603 30.2973C391.611 28.8196 390.582 27.6162 389.306 27.6087ZM390.519 33.4809C390.514 34.2754 389.952 34.9184 389.267 34.9149L385.3 34.8927C384.614 34.8887 384.058 34.2392 384.063 33.4447L384.08 30.255C384.084 29.4605 384.646 28.8175 385.332 28.8211L389.299 28.8437C389.984 28.8473 390.54 29.4968 390.536 30.2913L390.519 33.4809Z" fill="#0F1D5B"/>
<path d="M401.398 27.5739L396.777 27.5477C395.29 27.5392 394.077 28.7591 394.069 30.2726L394.052 33.5393C394.044 35.0528 395.243 36.2864 396.73 36.295L401.351 36.3211C402.838 36.3297 404.05 35.1097 404.058 33.5962L404.076 30.3295C404.084 28.8155 402.885 27.5825 401.398 27.5739ZM402.816 33.5892C402.812 34.4023 402.157 35.0614 401.358 35.0564L396.738 35.0302C395.938 35.0256 395.291 34.36 395.296 33.5469L395.313 30.2802C395.317 29.4666 395.971 28.808 396.771 28.8125L401.391 28.8387C402.191 28.8437 402.838 29.5088 402.833 30.3225L402.816 33.5892Z" fill="#0F1D5B"/>
<path d="M391.845 41.6763C391.847 41.6109 390.174 36.4052 392.356 28.2783C392.465 27.8765 393.064 28.0407 392.956 28.445C392.937 28.518 391.059 35.6444 392.298 40.9342C394.124 40.6492 394.803 40.1603 394.913 40.7021C395.027 41.2524 394.215 41.0631 391.845 41.6763Z" fill="#18287D"/>
<path d="M394.36 30.4504L391.152 30.4321L391.146 31.5916L394.353 31.6099L394.36 30.4504Z" fill="#0F1D5B"/>
<path d="M393.285 0C396.07 0.126881 398.9 1.37404 400.192 3.91367C401.344 6.17134 401.103 8.18985 401.027 9.74465L400.701 11.6277L400.089 11.5205C400.103 11.0165 400.308 9.41889 400.098 7.88524C399.561 3.82959 396.891 2.02254 393.273 2.26573L393.285 0Z" fill="#0F1D5B"/>
<path d="M409.022 58.0757L418.039 119.387L436.116 163.935C436.116 163.935 458.773 159 463.238 154.841C463.238 154.841 471.637 134.206 465.478 112.636C460.743 96.0518 438.627 86.787 437.267 82.0169C434.137 71.0422 431.954 56.973 409.022 58.0757Z" fill="url(#paint4_linear)"/>
<path d="M419.297 73.4851C417.125 75.7176 415.204 80.2199 413.1 85.8041L418.039 119.387L420.999 126.681C422.56 124.986 423.977 123.295 425.211 121.626C439.883 101.765 434.178 81.0728 430.188 74.1643C426.196 67.2569 426.008 66.5882 419.297 73.4851Z" fill="#690C05"/>
<path d="M394.048 45.6222C393.719 45.6162 393.727 45.1006 394.057 45.1112C394.104 45.1137 398.597 45.164 399.756 42.7815C399.904 42.4784 400.348 42.708 400.201 43.0101C399.227 45.011 396.172 45.6454 394.048 45.6222Z" fill="#18287D"/>
<path d="M359.749 148.98C355.277 154.21 349.364 149.935 346.237 151.156C343.109 152.377 338.642 159.153 341.595 160.517C344.548 161.882 347.47 170.808 351.092 169.395C354.714 167.982 361.752 160.007 365.486 155.839C365.872 155.409 366.561 154.816 367.475 154.095C365.599 151.597 363.777 149.058 361.689 146.799C360.922 147.642 360.26 148.383 359.749 148.98Z" fill="#FC7575"/>
<path d="M358.416 145.377L366.608 159.409C366.608 159.409 407.216 136.742 421.888 116.881C436.559 97.021 436.14 73.7057 432.148 66.7977C428.156 59.8892 422.685 61.8433 415.973 68.7402C409.262 75.6371 404.956 104.207 390.185 119.387C375.415 134.567 358.416 145.377 358.416 145.377Z" fill="#FFDA88"/>
<path d="M408.423 52.874C408.423 52.874 413.295 53.8241 414 58.5812C414.58 62.4893 411.388 74.1648 411.388 74.1648C411.388 74.1648 409.486 69.6389 406.007 64.3865C402.529 59.1345 408.423 52.874 408.423 52.874Z" fill="#241145"/>
<path d="M451.859 86.9647C451.837 86.9647 451.815 86.9627 451.793 86.9587C451.59 86.9214 451.455 86.7225 451.491 86.5141C453.15 76.9185 448.441 68.9552 444.2 63.964C439.583 58.5328 434.514 55.3512 434.464 55.3195C434.288 55.2098 434.231 54.9741 434.338 54.7929C434.445 54.6121 434.675 54.5537 434.851 54.6635C434.902 54.6952 440.07 57.9397 444.762 63.46C450.999 70.798 453.58 78.8166 452.226 86.648C452.193 86.8338 452.036 86.9647 451.859 86.9647Z" fill="#35385F"/>
<path d="M343.519 172.328C346.031 175.044 349.894 178.06 353.395 179.075C355.293 179.651 357.305 179.654 359.274 179.462C364.168 178.96 365.195 177.354 365.547 178.233C365.709 178.637 365.221 178.889 365.303 178.803C360.757 180.514 356.089 180.451 353.273 179.489C349.747 178.326 345.963 175.162 343.519 172.328Z" fill="#400519"/>
</g>
<defs>
<linearGradient id="paint0_linear" x1="183.267" y1="294.804" x2="193.911" y2="297.012" gradientUnits="userSpaceOnUse">
<stop stop-color="#7F0300"/>
<stop offset="1" stop-color="#93170A"/>
</linearGradient>
<linearGradient id="paint1_linear" x1="22.2614" y1="272.574" x2="34.9704" y2="275.211" gradientUnits="userSpaceOnUse">
<stop stop-color="#7F0300"/>
<stop offset="1" stop-color="#93170A"/>
</linearGradient>
<linearGradient id="paint2_linear" x1="324.463" y1="172.163" x2="354.071" y2="154.242" gradientUnits="userSpaceOnUse">
<stop stop-color="#7F0300"/>
<stop offset="1" stop-color="#93170A"/>
</linearGradient>
<linearGradient id="paint3_linear" x1="387.525" y1="114.836" x2="414.388" y2="114.836" gradientUnits="userSpaceOnUse">
<stop stop-color="#7F0300"/>
<stop offset="1" stop-color="#93170A"/>
</linearGradient>
<linearGradient id="paint4_linear" x1="409.022" y1="110.975" x2="467.734" y2="110.975" gradientUnits="userSpaceOnUse">
<stop stop-color="#7F0300"/>
<stop offset="1" stop-color="#93170A"/>
</linearGradient>
<clipPath id="clip0">
<rect width="575" height="336" fill="white"/>
</clipPath>
</defs>
</svg>
